solid OpenSCAD_Model
  facet normal 0 0.965926 0.258819
    outer loop
      vertex 2 -3.50589 2.02412
      vertex 0 -3.73597 2.8828
      vertex 2 -3.73597 2.8828
    endloop
  endfacet
  facet normal 0 0.965926 0.258819
    outer loop
      vertex 0 -3.73597 2.8828
      vertex 2 -3.50589 2.02412
      vertex 0 -3.50589 2.02412
    endloop
  endfacet
  facet normal -1 0 0
    outer loop
      vertex 2 0 0
      vertex 2 -0.355227 3.78867
      vertex 2 0.571527 0.329971
    endloop
  endfacet
  facet normal -1 0 0
    outer loop
      vertex 2 -3.50589 2.02412
      vertex 2 -0.355227 3.78867
      vertex 2 0 0
    endloop
  endfacet
  facet normal -1 0 0
    outer loop
      vertex 2 -0.355227 3.78867
      vertex 2 -3.50589 2.02412
      vertex 2 -3.73597 2.8828
    endloop
  endfacet
  facet normal 0 0.258819 -0.965926
    outer loop
      vertex 0 -3.73597 2.8828
      vertex 2 -0.355227 3.78867
      vertex 2 -3.73597 2.8828
    endloop
  endfacet
  facet normal 0 0.258819 -0.965926
    outer loop
      vertex 2 -0.355227 3.78867
      vertex 0 -3.73597 2.8828
      vertex 0 -0.355227 3.78867
    endloop
  endfacet
  facet normal 0 -0.965926 -0.258819
    outer loop
      vertex 0 0.571527 0.329971
      vertex 2 -0.355227 3.78867
      vertex 0 -0.355227 3.78867
    endloop
  endfacet
  facet normal 0 -0.965926 -0.258819
    outer loop
      vertex 2 -0.355227 3.78867
      vertex 0 0.571527 0.329971
      vertex 2 0.571527 0.329971
    endloop
  endfacet
  facet normal 0 0.965926 0.258819
    outer loop
      vertex 11 -3.50589 2.02412
      vertex 9 -3.73597 2.8828
      vertex 11 -3.73597 2.8828
    endloop
  endfacet
  facet normal 0 0.965926 0.258819
    outer loop
      vertex 9 -3.73597 2.8828
      vertex 11 -3.50589 2.02412
      vertex 9 -3.50589 2.02412
    endloop
  endfacet
  facet normal 0 0.258819 -0.965926
    outer loop
      vertex 9 -3.73597 2.8828
      vertex 11 -0.355227 3.78867
      vertex 11 -3.73597 2.8828
    endloop
  endfacet
  facet normal 0 0.258819 -0.965926
    outer loop
      vertex 11 -0.355227 3.78867
      vertex 9 -3.73597 2.8828
      vertex 9 -0.355227 3.78867
    endloop
  endfacet
  facet normal 1 -0 0
    outer loop
      vertex 9 -0.787296 0.454545
      vertex 9 0.571527 0.329971
      vertex 9 -0.355227 3.78867
    endloop
  endfacet
  facet normal 1 0 0
    outer loop
      vertex 9 0.571527 0.329971
      vertex 9 -0.787296 0.454545
      vertex 9 0 0
    endloop
  endfacet
  facet normal 1 0 0
    outer loop
      vertex 9 -0.355227 3.78867
      vertex 9 -3.50589 2.02412
      vertex 9 -0.787296 0.454545
    endloop
  endfacet
  facet normal 1 0 -0
    outer loop
      vertex 9 -3.50589 2.02412
      vertex 9 -0.355227 3.78867
      vertex 9 -3.73597 2.8828
    endloop
  endfacet
  facet normal 0 -0.965926 -0.258819
    outer loop
      vertex 9.54813 0.571527 0.329971
      vertex 11 -0.355227 3.78867
      vertex 9 -0.355227 3.78867
    endloop
  endfacet
  facet normal -0 -0.965926 -0.258819
    outer loop
      vertex 9.54813 0.571527 0.329971
      vertex 9 -0.355227 3.78867
      vertex 9 0.571527 0.329971
    endloop
  endfacet
  facet normal 2.12509e-08 -0.965926 -0.258819
    outer loop
      vertex 11 -0.355227 3.78867
      vertex 9.54813 0.571527 0.329971
      vertex 11 0.571527 0.329971
    endloop
  endfacet
  facet normal 7.11069e-08 0.5 -0.866025
    outer loop
      vertex 9.54813 0.571527 0.329971
      vertex 11 4.33013 2.5
      vertex 11 0.571527 0.329971
    endloop
  endfacet
  facet normal 7.50824e-08 0.5 -0.866025
    outer loop
      vertex 11 4.33013 2.5
      vertex 9.54813 0.571527 0.329971
      vertex 0 4.33013 2.5
    endloop
  endfacet
  facet normal 0 0.5 -0.866025
    outer loop
      vertex 9 0 0
      vertex 2 0 0
      vertex 9 0.571527 0.329971
    endloop
  endfacet
  facet normal 0 0.5 -0.866025
    outer loop
      vertex 2 0.571527 0.329971
      vertex 9 0.571527 0.329971
      vertex 2 0 0
    endloop
  endfacet
  facet normal 0 0.5 -0.866025
    outer loop
      vertex 0 4.33013 2.5
      vertex 9 0.571527 0.329971
      vertex 2 0.571527 0.329971
    endloop
  endfacet
  facet normal 0 0.5 -0.866025
    outer loop
      vertex 0 4.33013 2.5
      vertex 2 0.571527 0.329971
      vertex 0 0.571527 0.329971
    endloop
  endfacet
  facet normal 0 0.5 -0.866025
    outer loop
      vertex 9 0.571527 0.329971
      vertex 0 4.33013 2.5
      vertex 9.54813 0.571527 0.329971
    endloop
  endfacet
  facet normal 0 1 -0
    outer loop
      vertex 11 4.33013 2.5
      vertex 0 4.33013 5
      vertex 11 4.33013 5
    endloop
  endfacet
  facet normal 0 1 0
    outer loop
      vertex 0 4.33013 5
      vertex 11 4.33013 2.5
      vertex 0 4.33013 2.5
    endloop
  endfacet
  facet normal 1 0 0
    outer loop
      vertex 11 -4.33 7.5
      vertex 11 -4.33013 7.5
      vertex 11 -4.33 5
    endloop
  endfacet
  facet normal 1 -0 0
    outer loop
      vertex 11 -0.355227 3.78867
      vertex 11 4.33013 2.5
      vertex 11 4.33013 5
    endloop
  endfacet
  facet normal 1 0 0
    outer loop
      vertex 11 4.33013 2.5
      vertex 11 -0.355227 3.78867
      vertex 11 0.571527 0.329971
    endloop
  endfacet
  facet normal 1 0 0
    outer loop
      vertex 11 -0.355227 3.78867
      vertex 11 -4.33 5
      vertex 11 -3.73597 2.8828
    endloop
  endfacet
  facet normal 1 -0 0
    outer loop
      vertex 11 -4.33 5
      vertex 11 -0.355227 3.78867
      vertex 11 4.33013 5
    endloop
  endfacet
  facet normal 1 0 0
    outer loop
      vertex 11 -4.33013 2.5
      vertex 11 -3.73597 2.8828
      vertex 11 -4.33 5
    endloop
  endfacet
  facet normal 1 0 0
    outer loop
      vertex 11 -3.73597 2.8828
      vertex 11 -4.33013 2.5
      vertex 11 -3.50589 2.02412
    endloop
  endfacet
  facet normal 1 0 0
    outer loop
      vertex 11 -4.33013 2.5
      vertex 11 -4.33 5
      vertex 11 -4.33013 7.5
    endloop
  endfacet
  facet normal 1 0 -0
    outer loop
      vertex 11 -4.33 7.5
      vertex 11 -4.33 7.50007
      vertex 11 -4.33013 7.5
    endloop
  endfacet
  facet normal -2.49479e-10 -0.5 -0.866025
    outer loop
      vertex 2 0 0
      vertex 9 -0.787296 0.454545
      vertex 2 -3.50589 2.02412
    endloop
  endfacet
  facet normal -7.64884e-07 -0.499998 -0.866026
    outer loop
      vertex 0 -4.33013 2.5
      vertex 2 -3.50589 2.02412
      vertex 9 -0.787296 0.454545
    endloop
  endfacet
  facet normal -0 -0.5 -0.866026
    outer loop
      vertex 2 -3.50589 2.02412
      vertex 0 -4.33013 2.5
      vertex 0 -3.50589 2.02412
    endloop
  endfacet
  facet normal 0 -0.5 -0.866025
    outer loop
      vertex 9 -0.787296 0.454545
      vertex 2 0 0
      vertex 9 0 0
    endloop
  endfacet
  facet normal -1 0 0
    outer loop
      vertex 0 -4.33013 2.5
      vertex 0 -3.73597 2.8828
      vertex 0 -3.50589 2.02412
    endloop
  endfacet
  facet normal -1 -0 0
    outer loop
      vertex 0 -3.73597 2.8828
      vertex 0 -4.33013 2.5
      vertex 0 -4.33 5
    endloop
  endfacet
  facet normal -1 0 0
    outer loop
      vertex 0 -4.33013 7.5
      vertex 0 -4.33 5
      vertex 0 -4.33013 2.5
    endloop
  endfacet
  facet normal -1 0 0
    outer loop
      vertex 0 -4.33 5
      vertex 0 -4.33013 7.5
      vertex 0 -4.33 7.50007
    endloop
  endfacet
  facet normal -1 0 0
    outer loop
      vertex 0 -0.355227 3.78867
      vertex 0 4.33013 2.5
      vertex 0 0.571527 0.329971
    endloop
  endfacet
  facet normal -1 0 0
    outer loop
      vertex 0 4.33013 2.5
      vertex 0 -0.355227 3.78867
      vertex 0 4.33013 5
    endloop
  endfacet
  facet normal -1 0 0
    outer loop
      vertex 0 -0.355227 3.78867
      vertex 0 -4.33 5
      vertex 0 4.33013 5
    endloop
  endfacet
  facet normal -1 0 0
    outer loop
      vertex 0 -4.33 5
      vertex 0 -0.355227 3.78867
      vertex 0 -3.73597 2.8828
    endloop
  endfacet
  facet normal 0 -0.5 -0.866025
    outer loop
      vertex 11 -4.33013 2.5
      vertex 9 -3.50589 2.02412
      vertex 11 -3.50589 2.02412
    endloop
  endfacet
  facet normal 8.28259e-08 -0.5 -0.866025
    outer loop
      vertex 9 -3.50589 2.02412
      vertex 0 -4.33013 2.5
      vertex 9 -0.787296 0.454545
    endloop
  endfacet
  facet normal 7.50824e-08 -0.5 -0.866025
    outer loop
      vertex 0 -4.33013 2.5
      vertex 9 -3.50589 2.02412
      vertex 11 -4.33013 2.5
    endloop
  endfacet
  facet normal 0 -1 0
    outer loop
      vertex 0 -4.33013 7.5
      vertex 11 -4.33013 2.5
      vertex 11 -4.33013 7.5
    endloop
  endfacet
  facet normal -0 -1 0
    outer loop
      vertex 11 -4.33013 2.5
      vertex 0 -4.33013 7.5
      vertex 0 -4.33013 2.5
    endloop
  endfacet
  facet normal 0 -0.501036 0.865426
    outer loop
      vertex 0 -4.33 7.50007
      vertex 11 -4.33013 7.5
      vertex 11 -4.33 7.50007
    endloop
  endfacet
  facet normal 0 -0.501036 0.865426
    outer loop
      vertex 11 -4.33013 7.5
      vertex 0 -4.33 7.50007
      vertex 0 -4.33013 7.5
    endloop
  endfacet
  facet normal -1 0 0
    outer loop
      vertex -1 -4.33 5
      vertex -1 5.67 6
      vertex -1 5.67 5
    endloop
  endfacet
  facet normal -1 -0 0
    outer loop
      vertex -1 5.67 6
      vertex -1 -4.33 5
      vertex -1 -4.33 6
    endloop
  endfacet
  facet normal 0 0 -1
    outer loop
      vertex 0 -4.33 5
      vertex -1 -4.33 5
      vertex 0 4.33013 5
    endloop
  endfacet
  facet normal 0 0 -1
    outer loop
      vertex 11 4.33013 5
      vertex 4.5 4.35 5
      vertex 6.5 4.35 5
    endloop
  endfacet
  facet normal 0 0 -1
    outer loop
      vertex 0 4.33013 5
      vertex 4.5 4.35 5
      vertex 11 4.33013 5
    endloop
  endfacet
  facet normal 0 0 -1
    outer loop
      vertex 0 4.33013 5
      vertex 4.5 5.67 5
      vertex 4.5 4.35 5
    endloop
  endfacet
  facet normal 0 0 -1
    outer loop
      vertex 0 4.33013 5
      vertex -1 5.67 5
      vertex 4.5 5.67 5
    endloop
  endfacet
  facet normal 0 0 -1
    outer loop
      vertex -1 5.67 5
      vertex 0 4.33013 5
      vertex -1 -4.33 5
    endloop
  endfacet
  facet normal 0 0 -1
    outer loop
      vertex 11 4.33013 5
      vertex 12 -4.33 5
      vertex 11 -4.33 5
    endloop
  endfacet
  facet normal 0 0 -1
    outer loop
      vertex 12 -4.33 5
      vertex 11 4.33013 5
      vertex 12 5.67 5
    endloop
  endfacet
  facet normal 0 0 -1
    outer loop
      vertex 6.5 5.67 5
      vertex 11 4.33013 5
      vertex 6.5 4.35 5
    endloop
  endfacet
  facet normal 0 0 -1
    outer loop
      vertex 11 4.33013 5
      vertex 6.5 5.67 5
      vertex 12 5.67 5
    endloop
  endfacet
  facet normal 0 0 1
    outer loop
      vertex 10 3.67 16
      vertex 8 0 16
      vertex 10 -4.33 16
    endloop
  endfacet
  facet normal 0 0 1
    outer loop
      vertex 10 3.67 16
      vertex 7.9863 0.261321 16
      vertex 8 0 16
    endloop
  endfacet
  facet normal 0 0 1
    outer loop
      vertex 10 3.67 16
      vertex 7.94537 0.519779 16
      vertex 7.9863 0.261321 16
    endloop
  endfacet
  facet normal 0 0 1
    outer loop
      vertex 10 3.67 16
      vertex 7.87764 0.772542 16
      vertex 7.94537 0.519779 16
    endloop
  endfacet
  facet normal 0 0 1
    outer loop
      vertex 10 3.67 16
      vertex 7.78386 1.01684 16
      vertex 7.87764 0.772542 16
    endloop
  endfacet
  facet normal 0 0 1
    outer loop
      vertex 10 3.67 16
      vertex 7.66506 1.25 16
      vertex 7.78386 1.01684 16
    endloop
  endfacet
  facet normal 0 0 1
    outer loop
      vertex 10 3.67 16
      vertex 7.52254 1.46946 16
      vertex 7.66506 1.25 16
    endloop
  endfacet
  facet normal 0 0 1
    outer loop
      vertex 10 3.67 16
      vertex 7.35786 1.67283 16
      vertex 7.52254 1.46946 16
    endloop
  endfacet
  facet normal 0 0 1
    outer loop
      vertex 10 3.67 16
      vertex 7.17283 1.85786 16
      vertex 7.35786 1.67283 16
    endloop
  endfacet
  facet normal 0 0 1
    outer loop
      vertex 10 3.67 16
      vertex 6.96946 2.02254 16
      vertex 7.17283 1.85786 16
    endloop
  endfacet
  facet normal 0 0 1
    outer loop
      vertex 10 3.67 16
      vertex 6.75 2.16506 16
      vertex 6.96946 2.02254 16
    endloop
  endfacet
  facet normal 0 0 1
    outer loop
      vertex 10 3.67 16
      vertex 6.51684 2.28386 16
      vertex 6.75 2.16506 16
    endloop
  endfacet
  facet normal 0 0 1
    outer loop
      vertex 10 3.67 16
      vertex 6.27254 2.37764 16
      vertex 6.51684 2.28386 16
    endloop
  endfacet
  facet normal 0 0 1
    outer loop
      vertex 10 3.67 16
      vertex 6.01978 2.44537 16
      vertex 6.27254 2.37764 16
    endloop
  endfacet
  facet normal 0 0 1
    outer loop
      vertex 10 3.67 16
      vertex 5.76132 2.4863 16
      vertex 6.01978 2.44537 16
    endloop
  endfacet
  facet normal 0 0 1
    outer loop
      vertex 10 3.67 16
      vertex 5.5 2.5 16
      vertex 5.76132 2.4863 16
    endloop
  endfacet
  facet normal -0 0 1
    outer loop
      vertex 1 3.67 16
      vertex 5.5 2.5 16
      vertex 10 3.67 16
    endloop
  endfacet
  facet normal 0 0 1
    outer loop
      vertex 5.5 2.5 16
      vertex 1 3.67 16
      vertex 5.23868 2.4863 16
    endloop
  endfacet
  facet normal 0 0 1
    outer loop
      vertex 3.01369 0.261321 16
      vertex 1 3.67 16
      vertex 3 0 16
    endloop
  endfacet
  facet normal 0 0 1
    outer loop
      vertex 3.05463 0.519779 16
      vertex 1 3.67 16
      vertex 3.01369 0.261321 16
    endloop
  endfacet
  facet normal 0 0 1
    outer loop
      vertex 3.12236 0.772542 16
      vertex 1 3.67 16
      vertex 3.05463 0.519779 16
    endloop
  endfacet
  facet normal 0 0 1
    outer loop
      vertex 3.21614 1.01684 16
      vertex 1 3.67 16
      vertex 3.12236 0.772542 16
    endloop
  endfacet
  facet normal 0 0 1
    outer loop
      vertex 3.33494 1.25 16
      vertex 1 3.67 16
      vertex 3.21614 1.01684 16
    endloop
  endfacet
  facet normal 0 0 1
    outer loop
      vertex 3.47746 1.46946 16
      vertex 1 3.67 16
      vertex 3.33494 1.25 16
    endloop
  endfacet
  facet normal 0 0 1
    outer loop
      vertex 3.64214 1.67283 16
      vertex 1 3.67 16
      vertex 3.47746 1.46946 16
    endloop
  endfacet
  facet normal 0 0 1
    outer loop
      vertex 3.82717 1.85786 16
      vertex 1 3.67 16
      vertex 3.64214 1.67283 16
    endloop
  endfacet
  facet normal 0 0 1
    outer loop
      vertex 4.03054 2.02254 16
      vertex 1 3.67 16
      vertex 3.82717 1.85786 16
    endloop
  endfacet
  facet normal 0 0 1
    outer loop
      vertex 4.25 2.16506 16
      vertex 1 3.67 16
      vertex 4.03054 2.02254 16
    endloop
  endfacet
  facet normal 0 0 1
    outer loop
      vertex 4.48316 2.28386 16
      vertex 1 3.67 16
      vertex 4.25 2.16506 16
    endloop
  endfacet
  facet normal 0 0 1
    outer loop
      vertex 4.72746 2.37764 16
      vertex 1 3.67 16
      vertex 4.48316 2.28386 16
    endloop
  endfacet
  facet normal 0 0 1
    outer loop
      vertex 4.98022 2.44537 16
      vertex 1 3.67 16
      vertex 4.72746 2.37764 16
    endloop
  endfacet
  facet normal 0 0 1
    outer loop
      vertex 5.23868 2.4863 16
      vertex 1 3.67 16
      vertex 4.98022 2.44537 16
    endloop
  endfacet
  facet normal -0 0 1
    outer loop
      vertex 7.9863 -0.261321 16
      vertex 10 -4.33 16
      vertex 8 0 16
    endloop
  endfacet
  facet normal -0 0 1
    outer loop
      vertex 7.94537 -0.519779 16
      vertex 10 -4.33 16
      vertex 7.9863 -0.261321 16
    endloop
  endfacet
  facet normal -0 0 1
    outer loop
      vertex 7.87764 -0.772542 16
      vertex 10 -4.33 16
      vertex 7.94537 -0.519779 16
    endloop
  endfacet
  facet normal -0 0 1
    outer loop
      vertex 7.78386 -1.01684 16
      vertex 10 -4.33 16
      vertex 7.87764 -0.772542 16
    endloop
  endfacet
  facet normal -0 0 1
    outer loop
      vertex 7.66506 -1.25 16
      vertex 10 -4.33 16
      vertex 7.78386 -1.01684 16
    endloop
  endfacet
  facet normal -0 0 1
    outer loop
      vertex 7.52254 -1.46946 16
      vertex 10 -4.33 16
      vertex 7.66506 -1.25 16
    endloop
  endfacet
  facet normal -0 0 1
    outer loop
      vertex 7.35786 -1.67283 16
      vertex 10 -4.33 16
      vertex 7.52254 -1.46946 16
    endloop
  endfacet
  facet normal -0 0 1
    outer loop
      vertex 7.17283 -1.85786 16
      vertex 10 -4.33 16
      vertex 7.35786 -1.67283 16
    endloop
  endfacet
  facet normal -0 0 1
    outer loop
      vertex 6.96946 -2.02254 16
      vertex 10 -4.33 16
      vertex 7.17283 -1.85786 16
    endloop
  endfacet
  facet normal -0 0 1
    outer loop
      vertex 6.75 -2.16506 16
      vertex 10 -4.33 16
      vertex 6.96946 -2.02254 16
    endloop
  endfacet
  facet normal -0 0 1
    outer loop
      vertex 6.51684 -2.28386 16
      vertex 10 -4.33 16
      vertex 6.75 -2.16506 16
    endloop
  endfacet
  facet normal -0 0 1
    outer loop
      vertex 6.27254 -2.37764 16
      vertex 10 -4.33 16
      vertex 6.51684 -2.28386 16
    endloop
  endfacet
  facet normal -0 0 1
    outer loop
      vertex 6.01978 -2.44537 16
      vertex 10 -4.33 16
      vertex 6.27254 -2.37764 16
    endloop
  endfacet
  facet normal -0 0 1
    outer loop
      vertex 5.76132 -2.4863 16
      vertex 10 -4.33 16
      vertex 6.01978 -2.44537 16
    endloop
  endfacet
  facet normal -0 0 1
    outer loop
      vertex 5.5 -2.5 16
      vertex 10 -4.33 16
      vertex 5.76132 -2.4863 16
    endloop
  endfacet
  facet normal 0 0 1
    outer loop
      vertex 1 -4.33 16
      vertex 5.5 -2.5 16
      vertex 5.23868 -2.4863 16
    endloop
  endfacet
  facet normal 0 0 1
    outer loop
      vertex 1 -4.33 16
      vertex 5.23868 -2.4863 16
      vertex 4.98022 -2.44537 16
    endloop
  endfacet
  facet normal 0 0 1
    outer loop
      vertex 1 -4.33 16
      vertex 4.98022 -2.44537 16
      vertex 4.72746 -2.37764 16
    endloop
  endfacet
  facet normal 0 0 1
    outer loop
      vertex 1 -4.33 16
      vertex 3 0 16
      vertex 1 3.67 16
    endloop
  endfacet
  facet normal 0 0 1
    outer loop
      vertex 3 0 16
      vertex 1 -4.33 16
      vertex 3.01369 -0.261321 16
    endloop
  endfacet
  facet normal 0 0 1
    outer loop
      vertex 3.01369 -0.261321 16
      vertex 1 -4.33 16
      vertex 3.05463 -0.519779 16
    endloop
  endfacet
  facet normal 0 0 1
    outer loop
      vertex 3.05463 -0.519779 16
      vertex 1 -4.33 16
      vertex 3.12236 -0.772542 16
    endloop
  endfacet
  facet normal 0 0 1
    outer loop
      vertex 5.5 -2.5 16
      vertex 1 -4.33 16
      vertex 10 -4.33 16
    endloop
  endfacet
  facet normal 0 0 1
    outer loop
      vertex 4.48316 -2.28386 16
      vertex 1 -4.33 16
      vertex 4.72746 -2.37764 16
    endloop
  endfacet
  facet normal 0 0 1
    outer loop
      vertex 4.25 -2.16506 16
      vertex 1 -4.33 16
      vertex 4.48316 -2.28386 16
    endloop
  endfacet
  facet normal 0 0 1
    outer loop
      vertex 4.03054 -2.02254 16
      vertex 1 -4.33 16
      vertex 4.25 -2.16506 16
    endloop
  endfacet
  facet normal 0 0 1
    outer loop
      vertex 3.82717 -1.85786 16
      vertex 1 -4.33 16
      vertex 4.03054 -2.02254 16
    endloop
  endfacet
  facet normal 0 0 1
    outer loop
      vertex 3.64214 -1.67283 16
      vertex 1 -4.33 16
      vertex 3.82717 -1.85786 16
    endloop
  endfacet
  facet normal 0 0 1
    outer loop
      vertex 3.47746 -1.46946 16
      vertex 1 -4.33 16
      vertex 3.64214 -1.67283 16
    endloop
  endfacet
  facet normal 0 0 1
    outer loop
      vertex 3.33494 -1.25 16
      vertex 1 -4.33 16
      vertex 3.47746 -1.46946 16
    endloop
  endfacet
  facet normal 0 0 1
    outer loop
      vertex 3.21614 -1.01684 16
      vertex 1 -4.33 16
      vertex 3.33494 -1.25 16
    endloop
  endfacet
  facet normal 0 0 1
    outer loop
      vertex 3.12236 -0.772542 16
      vertex 1 -4.33 16
      vertex 3.21614 -1.01684 16
    endloop
  endfacet
  facet normal 0 -1 -0
    outer loop
      vertex 1 -4.33 16
      vertex 0 -4.33 7.50007
      vertex 10 -4.33 16
    endloop
  endfacet
  facet normal 0 -1 0
    outer loop
      vertex -1 -4.33 6
      vertex 0 -4.33 7.50007
      vertex 1 -4.33 16
    endloop
  endfacet
  facet normal 0 -1 0
    outer loop
      vertex 0 -4.33 5
      vertex -1 -4.33 6
      vertex -1 -4.33 5
    endloop
  endfacet
  facet normal 0 -1 0
    outer loop
      vertex -1 -4.33 6
      vertex 0 -4.33 5
      vertex 0 -4.33 7.50007
    endloop
  endfacet
  facet normal 0 -1 0
    outer loop
      vertex 11 -4.33 7.50007
      vertex 10 -4.33 16
      vertex 0 -4.33 7.50007
    endloop
  endfacet
  facet normal 0 -1 0
    outer loop
      vertex 11 -4.33 7.50007
      vertex 12 -4.33 6
      vertex 10 -4.33 16
    endloop
  endfacet
  facet normal 0 -1 0
    outer loop
      vertex 11 -4.33 7.5
      vertex 12 -4.33 6
      vertex 11 -4.33 7.50007
    endloop
  endfacet
  facet normal 0 -1 0
    outer loop
      vertex 11 -4.33 5
      vertex 12 -4.33 6
      vertex 11 -4.33 7.5
    endloop
  endfacet
  facet normal 0 -1 -0
    outer loop
      vertex 12 -4.33 6
      vertex 11 -4.33 5
      vertex 12 -4.33 5
    endloop
  endfacet
  facet normal 0.980581 2.72854e-07 0.196116
    outer loop
      vertex 10 3.67 16
      vertex 10.1807 1.88716 15.0963
      vertex 10.7381 3.35881 12.3095
    endloop
  endfacet
  facet normal 0.980581 -0 0.196117
    outer loop
      vertex 10 -4.33 16
      vertex 10.1807 1.88716 15.0963
      vertex 10 3.67 16
    endloop
  endfacet
  facet normal 0.980581 -4.8142e-08 0.196116
    outer loop
      vertex 10.1807 1.88716 15.0963
      vertex 10 -4.33 16
      vertex 10.3773 -3.68642 14.1135
    endloop
  endfacet
  facet normal 0.980581 -3.56487e-07 0.196116
    outer loop
      vertex 10.7381 3.35881 12.3095
      vertex 12 5.67 6
      vertex 10 3.67 16
    endloop
  endfacet
  facet normal 0.980581 1.16264e-07 0.196116
    outer loop
      vertex 10.9347 -2.21477 11.3267
      vertex 12 5.67 6
      vertex 10.7381 3.35881 12.3095
    endloop
  endfacet
  facet normal 0.980581 0 0.196116
    outer loop
      vertex 10.9347 -2.21477 11.3267
      vertex 12 -4.33 6
      vertex 12 5.67 6
    endloop
  endfacet
  facet normal 0.980581 -1.48444e-07 0.196116
    outer loop
      vertex 10.3773 -3.68642 14.1135
      vertex 12 -4.33 6
      vertex 10.9347 -2.21477 11.3267
    endloop
  endfacet
  facet normal 0.980581 -2.9061e-07 0.196116
    outer loop
      vertex 12 -4.33 6
      vertex 10.3773 -3.68642 14.1135
      vertex 10 -4.33 16
    endloop
  endfacet
  facet normal 1 -0 0
    outer loop
      vertex 12 -4.33 6
      vertex 12 5.67 5
      vertex 12 5.67 6
    endloop
  endfacet
  facet normal 1 0 0
    outer loop
      vertex 12 5.67 5
      vertex 12 -4.33 6
      vertex 12 -4.33 5
    endloop
  endfacet
  facet normal -0.980581 0 0.196116
    outer loop
      vertex -1 -4.33 6
      vertex -0.417201 3.89012 8.91399
      vertex -1 5.67 6
    endloop
  endfacet
  facet normal -0.980581 4.72931e-08 0.196116
    outer loop
      vertex 1 -4.33 16
      vertex -0.0760297 -2.47622 10.6199
      vertex -1 -4.33 6
    endloop
  endfacet
  facet normal -0.980581 -2.02769e-08 0.196116
    outer loop
      vertex -0.417201 3.89012 8.91399
      vertex -1 -4.33 6
      vertex -0.0760297 -2.47622 10.6199
    endloop
  endfacet
  facet normal -0.980581 1.51394e-07 0.196116
    outer loop
      vertex 0.219433 3.60147 12.0972
      vertex -1 5.67 6
      vertex -0.417201 3.89012 8.91399
    endloop
  endfacet
  facet normal -0.980581 -7.91596e-08 0.196116
    outer loop
      vertex -1 5.67 6
      vertex 0.219433 3.60147 12.0972
      vertex 1 3.67 16
    endloop
  endfacet
  facet normal -0.980581 -5.04987e-09 0.196116
    outer loop
      vertex 0.560605 -2.76488 13.803
      vertex 1 3.67 16
      vertex 0.219433 3.60147 12.0972
    endloop
  endfacet
  facet normal -0.980581 0 0.196116
    outer loop
      vertex 0.560605 -2.76488 13.803
      vertex 1 -4.33 16
      vertex 1 3.67 16
    endloop
  endfacet
  facet normal -0.980581 4.24884e-08 0.196116
    outer loop
      vertex -0.0760297 -2.47622 10.6199
      vertex 1 -4.33 16
      vertex 0.560605 -2.76488 13.803
    endloop
  endfacet
  facet normal 0 1 -0
    outer loop
      vertex 4.5 5.67 5
      vertex -1 5.67 6
      vertex 4.5 5.67 6
    endloop
  endfacet
  facet normal 0 1 0
    outer loop
      vertex -1 5.67 6
      vertex 4.5 5.67 5
      vertex -1 5.67 5
    endloop
  endfacet
  facet normal 0 1 -0
    outer loop
      vertex 12 5.67 5
      vertex 6.5 5.67 6
      vertex 12 5.67 6
    endloop
  endfacet
  facet normal 0 1 0
    outer loop
      vertex 6.5 5.67 6
      vertex 12 5.67 5
      vertex 6.5 5.67 5
    endloop
  endfacet
  facet normal -0 0.980581 0.196116
    outer loop
      vertex 6.5 5.67 6
      vertex 10 3.67 16
      vertex 12 5.67 6
    endloop
  endfacet
  facet normal 0 0.980581 0.196116
    outer loop
      vertex 10 3.67 16
      vertex 6.5 5.67 6
      vertex 1 3.67 16
    endloop
  endfacet
  facet normal -0 0.980581 0.196116
    outer loop
      vertex 4.5 5.67 6
      vertex 1 3.67 16
      vertex 6.5 5.67 6
    endloop
  endfacet
  facet normal 0 0.980581 0.196116
    outer loop
      vertex 1 3.67 16
      vertex 4.5 5.67 6
      vertex -1 5.67 6
    endloop
  endfacet
  facet normal 1 -0 0
    outer loop
      vertex 4.5 4.35 6
      vertex 4.5 5.67 5
      vertex 4.5 5.67 6
    endloop
  endfacet
  facet normal 1 0 0
    outer loop
      vertex 4.5 5.67 5
      vertex 4.5 4.35 6
      vertex 4.5 4.35 5
    endloop
  endfacet
  facet normal 0 0 -1
    outer loop
      vertex 4.5 4.35 6
      vertex 6.5 5.67 6
      vertex 6.5 4.35 6
    endloop
  endfacet
  facet normal -0 0 -1
    outer loop
      vertex 6.5 5.67 6
      vertex 4.5 4.35 6
      vertex 4.5 5.67 6
    endloop
  endfacet
  facet normal -1 0 0
    outer loop
      vertex 6.5 4.35 5
      vertex 6.5 5.67 6
      vertex 6.5 5.67 5
    endloop
  endfacet
  facet normal -1 -0 0
    outer loop
      vertex 6.5 5.67 6
      vertex 6.5 4.35 5
      vertex 6.5 4.35 6
    endloop
  endfacet
  facet normal 0 1 -0
    outer loop
      vertex 6.5 4.35 5
      vertex 4.5 4.35 6
      vertex 6.5 4.35 6
    endloop
  endfacet
  facet normal 0 1 0
    outer loop
      vertex 4.5 4.35 6
      vertex 6.5 4.35 5
      vertex 4.5 4.35 5
    endloop
  endfacet
  facet normal -0.998629 -0.0523377 0
    outer loop
      vertex 8 0 14
      vertex 7.9863 0.261321 16
      vertex 7.9863 0.261321 14
    endloop
  endfacet
  facet normal -0.998629 -0.0523377 0
    outer loop
      vertex 7.9863 0.261321 16
      vertex 8 0 14
      vertex 8 0 16
    endloop
  endfacet
  facet normal 0.0523375 -0.998629 0
    outer loop
      vertex 5.23868 2.4863 14
      vertex 5.5 2.5 16
      vertex 5.23868 2.4863 16
    endloop
  endfacet
  facet normal 0.0523375 -0.998629 0
    outer loop
      vertex 5.5 2.5 16
      vertex 5.23868 2.4863 14
      vertex 5.5 2.5 14
    endloop
  endfacet
  facet normal -0.0523375 0.998629 0
    outer loop
      vertex 5.76132 -2.4863 14
      vertex 5.5 -2.5 16
      vertex 5.76132 -2.4863 16
    endloop
  endfacet
  facet normal -0.0523375 0.998629 0
    outer loop
      vertex 5.5 -2.5 16
      vertex 5.76132 -2.4863 14
      vertex 5.5 -2.5 14
    endloop
  endfacet
  facet normal -0.62932 -0.777146 0
    outer loop
      vertex 6.96946 2.02254 14
      vertex 7.17283 1.85786 16
      vertex 6.96946 2.02254 16
    endloop
  endfacet
  facet normal -0.62932 -0.777146 -0
    outer loop
      vertex 7.17283 1.85786 16
      vertex 6.96946 2.02254 14
      vertex 7.17283 1.85786 14
    endloop
  endfacet
  facet normal 0.777146 -0.62932 0
    outer loop
      vertex 3.47746 1.46946 16
      vertex 3.64214 1.67283 14
      vertex 3.64214 1.67283 16
    endloop
  endfacet
  facet normal 0.777146 -0.62932 0
    outer loop
      vertex 3.64214 1.67283 14
      vertex 3.47746 1.46946 16
      vertex 3.47746 1.46946 14
    endloop
  endfacet
  facet normal 0.453991 -0.891006 0
    outer loop
      vertex 4.25 2.16506 14
      vertex 4.48316 2.28386 16
      vertex 4.25 2.16506 16
    endloop
  endfacet
  facet normal 0.453991 -0.891006 0
    outer loop
      vertex 4.48316 2.28386 16
      vertex 4.25 2.16506 14
      vertex 4.48316 2.28386 14
    endloop
  endfacet
  facet normal -0.891006 -0.453991 0
    outer loop
      vertex 7.78386 1.01684 14
      vertex 7.66506 1.25 16
      vertex 7.66506 1.25 14
    endloop
  endfacet
  facet normal -0.891006 -0.453991 0
    outer loop
      vertex 7.66506 1.25 16
      vertex 7.78386 1.01684 14
      vertex 7.78386 1.01684 16
    endloop
  endfacet
  facet normal -0.258821 -0.965925 0
    outer loop
      vertex 6.01978 2.44537 14
      vertex 6.27254 2.37764 16
      vertex 6.01978 2.44537 16
    endloop
  endfacet
  facet normal -0.258821 -0.965925 -0
    outer loop
      vertex 6.27254 2.37764 16
      vertex 6.01978 2.44537 14
      vertex 6.27254 2.37764 14
    endloop
  endfacet
  facet normal -0.45399 -0.891007 0
    outer loop
      vertex 6.51684 2.28386 14
      vertex 6.75 2.16506 16
      vertex 6.51684 2.28386 16
    endloop
  endfacet
  facet normal -0.45399 -0.891007 -0
    outer loop
      vertex 6.75 2.16506 16
      vertex 6.51684 2.28386 14
      vertex 6.75 2.16506 14
    endloop
  endfacet
  facet normal 0.93358 -0.358368 0
    outer loop
      vertex 3.12236 0.772542 16
      vertex 3.21614 1.01684 14
      vertex 3.21614 1.01684 16
    endloop
  endfacet
  facet normal 0.93358 -0.358368 0
    outer loop
      vertex 3.21614 1.01684 14
      vertex 3.12236 0.772542 16
      vertex 3.12236 0.772542 14
    endloop
  endfacet
  facet normal 0.891006 -0.453991 0
    outer loop
      vertex 3.21614 1.01684 16
      vertex 3.33494 1.25 14
      vertex 3.33494 1.25 16
    endloop
  endfacet
  facet normal 0.891006 -0.453991 0
    outer loop
      vertex 3.33494 1.25 14
      vertex 3.21614 1.01684 16
      vertex 3.21614 1.01684 14
    endloop
  endfacet
  facet normal 0.987688 -0.156434 0
    outer loop
      vertex 3.01369 0.261321 16
      vertex 3.05463 0.519779 14
      vertex 3.05463 0.519779 16
    endloop
  endfacet
  facet normal 0.987688 -0.156434 0
    outer loop
      vertex 3.05463 0.519779 14
      vertex 3.01369 0.261321 16
      vertex 3.01369 0.261321 14
    endloop
  endfacet
  facet normal 0.258821 -0.965925 0
    outer loop
      vertex 4.72746 2.37764 14
      vertex 4.98022 2.44537 16
      vertex 4.72746 2.37764 16
    endloop
  endfacet
  facet normal 0.258821 -0.965925 0
    outer loop
      vertex 4.98022 2.44537 16
      vertex 4.72746 2.37764 14
      vertex 4.98022 2.44537 14
    endloop
  endfacet
  facet normal -0.156434 0.987688 0
    outer loop
      vertex 6.01978 -2.44537 14
      vertex 5.76132 -2.4863 16
      vertex 6.01978 -2.44537 16
    endloop
  endfacet
  facet normal -0.156434 0.987688 0
    outer loop
      vertex 5.76132 -2.4863 16
      vertex 6.01978 -2.44537 14
      vertex 5.76132 -2.4863 14
    endloop
  endfacet
  facet normal -0.965925 -0.258821 0
    outer loop
      vertex 7.94537 0.519779 14
      vertex 7.87764 0.772542 16
      vertex 7.87764 0.772542 14
    endloop
  endfacet
  facet normal -0.965925 -0.258821 0
    outer loop
      vertex 7.87764 0.772542 16
      vertex 7.94537 0.519779 14
      vertex 7.94537 0.519779 16
    endloop
  endfacet
  facet normal -0.987688 -0.156434 0
    outer loop
      vertex 7.9863 0.261321 14
      vertex 7.94537 0.519779 16
      vertex 7.94537 0.519779 14
    endloop
  endfacet
  facet normal -0.987688 -0.156434 0
    outer loop
      vertex 7.94537 0.519779 16
      vertex 7.9863 0.261321 14
      vertex 7.9863 0.261321 16
    endloop
  endfacet
  facet normal -0.93358 -0.358368 0
    outer loop
      vertex 7.87764 0.772542 14
      vertex 7.78386 1.01684 16
      vertex 7.78386 1.01684 14
    endloop
  endfacet
  facet normal -0.93358 -0.358368 0
    outer loop
      vertex 7.78386 1.01684 16
      vertex 7.87764 0.772542 14
      vertex 7.87764 0.772542 16
    endloop
  endfacet
  facet normal -0.777146 -0.62932 0
    outer loop
      vertex 7.52254 1.46946 14
      vertex 7.35786 1.67283 16
      vertex 7.35786 1.67283 14
    endloop
  endfacet
  facet normal -0.777146 -0.62932 0
    outer loop
      vertex 7.35786 1.67283 16
      vertex 7.52254 1.46946 14
      vertex 7.52254 1.46946 16
    endloop
  endfacet
  facet normal -0.707107 -0.707107 0
    outer loop
      vertex 7.35786 1.67283 14
      vertex 7.17283 1.85786 16
      vertex 7.17283 1.85786 14
    endloop
  endfacet
  facet normal -0.707107 -0.707107 0
    outer loop
      vertex 7.17283 1.85786 16
      vertex 7.35786 1.67283 14
      vertex 7.35786 1.67283 16
    endloop
  endfacet
  facet normal -0.838671 -0.544638 0
    outer loop
      vertex 7.66506 1.25 14
      vertex 7.52254 1.46946 16
      vertex 7.52254 1.46946 14
    endloop
  endfacet
  facet normal -0.838671 -0.544638 0
    outer loop
      vertex 7.52254 1.46946 16
      vertex 7.66506 1.25 14
      vertex 7.66506 1.25 16
    endloop
  endfacet
  facet normal -0.0523377 -0.998629 0
    outer loop
      vertex 5.5 2.5 14
      vertex 5.76132 2.4863 16
      vertex 5.5 2.5 16
    endloop
  endfacet
  facet normal -0.0523377 -0.998629 -0
    outer loop
      vertex 5.76132 2.4863 16
      vertex 5.5 2.5 14
      vertex 5.76132 2.4863 14
    endloop
  endfacet
  facet normal -0.54464 -0.83867 0
    outer loop
      vertex 6.75 2.16506 14
      vertex 6.96946 2.02254 16
      vertex 6.75 2.16506 16
    endloop
  endfacet
  facet normal -0.54464 -0.83867 -0
    outer loop
      vertex 6.96946 2.02254 16
      vertex 6.75 2.16506 14
      vertex 6.96946 2.02254 14
    endloop
  endfacet
  facet normal 0 0 1
    outer loop
      vertex 7.9863 0.261321 14
      vertex 7.9863 -0.261321 14
      vertex 8 0 14
    endloop
  endfacet
  facet normal 0 0 1
    outer loop
      vertex 7.94537 0.519779 14
      vertex 7.9863 -0.261321 14
      vertex 7.9863 0.261321 14
    endloop
  endfacet
  facet normal 0 0 1
    outer loop
      vertex 7.94537 0.519779 14
      vertex 7.94537 -0.519779 14
      vertex 7.9863 -0.261321 14
    endloop
  endfacet
  facet normal 0 0 1
    outer loop
      vertex 7.87764 0.772542 14
      vertex 7.94537 -0.519779 14
      vertex 7.94537 0.519779 14
    endloop
  endfacet
  facet normal 0 0 1
    outer loop
      vertex 7.87764 0.772542 14
      vertex 7.87764 -0.772542 14
      vertex 7.94537 -0.519779 14
    endloop
  endfacet
  facet normal 0 0 1
    outer loop
      vertex 7.78386 1.01684 14
      vertex 7.87764 -0.772542 14
      vertex 7.87764 0.772542 14
    endloop
  endfacet
  facet normal 0 0 1
    outer loop
      vertex 7.78386 1.01684 14
      vertex 7.78386 -1.01684 14
      vertex 7.87764 -0.772542 14
    endloop
  endfacet
  facet normal 0 0 1
    outer loop
      vertex 7.66506 1.25 14
      vertex 7.78386 -1.01684 14
      vertex 7.78386 1.01684 14
    endloop
  endfacet
  facet normal 0 0 1
    outer loop
      vertex 7.66506 1.25 14
      vertex 7.66506 -1.25 14
      vertex 7.78386 -1.01684 14
    endloop
  endfacet
  facet normal 0 0 1
    outer loop
      vertex 7.52254 1.46946 14
      vertex 7.66506 -1.25 14
      vertex 7.66506 1.25 14
    endloop
  endfacet
  facet normal 0 0 1
    outer loop
      vertex 7.52254 1.46946 14
      vertex 7.52254 -1.46946 14
      vertex 7.66506 -1.25 14
    endloop
  endfacet
  facet normal 0 0 1
    outer loop
      vertex 7.35786 1.67283 14
      vertex 7.52254 -1.46946 14
      vertex 7.52254 1.46946 14
    endloop
  endfacet
  facet normal 0 0 1
    outer loop
      vertex 7.35786 1.67283 14
      vertex 7.35786 -1.67283 14
      vertex 7.52254 -1.46946 14
    endloop
  endfacet
  facet normal 0 0 1
    outer loop
      vertex 7.17283 1.85786 14
      vertex 7.35786 -1.67283 14
      vertex 7.35786 1.67283 14
    endloop
  endfacet
  facet normal 0 0 1
    outer loop
      vertex 7.17283 1.85786 14
      vertex 7.17283 -1.85786 14
      vertex 7.35786 -1.67283 14
    endloop
  endfacet
  facet normal 0 0 1
    outer loop
      vertex 6.96946 2.02254 14
      vertex 7.17283 -1.85786 14
      vertex 7.17283 1.85786 14
    endloop
  endfacet
  facet normal 0 0 1
    outer loop
      vertex 6.96946 2.02254 14
      vertex 6.96946 -2.02254 14
      vertex 7.17283 -1.85786 14
    endloop
  endfacet
  facet normal 0 0 1
    outer loop
      vertex 6.75 2.16506 14
      vertex 6.96946 -2.02254 14
      vertex 6.96946 2.02254 14
    endloop
  endfacet
  facet normal 0 0 1
    outer loop
      vertex 6.75 2.16506 14
      vertex 6.75 -2.16506 14
      vertex 6.96946 -2.02254 14
    endloop
  endfacet
  facet normal 0 0 1
    outer loop
      vertex 6.51684 2.28386 14
      vertex 6.75 -2.16506 14
      vertex 6.75 2.16506 14
    endloop
  endfacet
  facet normal 0 0 1
    outer loop
      vertex 6.51684 2.28386 14
      vertex 6.51684 -2.28386 14
      vertex 6.75 -2.16506 14
    endloop
  endfacet
  facet normal 0 0 1
    outer loop
      vertex 6.27254 2.37764 14
      vertex 6.51684 -2.28386 14
      vertex 6.51684 2.28386 14
    endloop
  endfacet
  facet normal 0 0 1
    outer loop
      vertex 6.27254 2.37764 14
      vertex 6.27254 -2.37764 14
      vertex 6.51684 -2.28386 14
    endloop
  endfacet
  facet normal 0 0 1
    outer loop
      vertex 6.01978 2.44537 14
      vertex 6.27254 -2.37764 14
      vertex 6.27254 2.37764 14
    endloop
  endfacet
  facet normal 0 0 1
    outer loop
      vertex 6.01978 2.44537 14
      vertex 6.01978 -2.44537 14
      vertex 6.27254 -2.37764 14
    endloop
  endfacet
  facet normal 0 0 1
    outer loop
      vertex 5.76132 2.4863 14
      vertex 6.01978 -2.44537 14
      vertex 6.01978 2.44537 14
    endloop
  endfacet
  facet normal 0 0 1
    outer loop
      vertex 5.76132 2.4863 14
      vertex 5.76132 -2.4863 14
      vertex 6.01978 -2.44537 14
    endloop
  endfacet
  facet normal 0 0 1
    outer loop
      vertex 5.5 2.5 14
      vertex 5.76132 -2.4863 14
      vertex 5.76132 2.4863 14
    endloop
  endfacet
  facet normal 0 0 1
    outer loop
      vertex 5.5 2.5 14
      vertex 5.5 -2.5 14
      vertex 5.76132 -2.4863 14
    endloop
  endfacet
  facet normal -0 0 1
    outer loop
      vertex 5.23868 2.4863 14
      vertex 5.5 -2.5 14
      vertex 5.5 2.5 14
    endloop
  endfacet
  facet normal 0 0 1
    outer loop
      vertex 5.23868 2.4863 14
      vertex 5.23868 -2.4863 14
      vertex 5.5 -2.5 14
    endloop
  endfacet
  facet normal -0 0 1
    outer loop
      vertex 4.98022 2.44537 14
      vertex 5.23868 -2.4863 14
      vertex 5.23868 2.4863 14
    endloop
  endfacet
  facet normal 0 0 1
    outer loop
      vertex 4.98022 2.44537 14
      vertex 4.98022 -2.44537 14
      vertex 5.23868 -2.4863 14
    endloop
  endfacet
  facet normal -0 0 1
    outer loop
      vertex 4.72746 2.37764 14
      vertex 4.98022 -2.44537 14
      vertex 4.98022 2.44537 14
    endloop
  endfacet
  facet normal 0 0 1
    outer loop
      vertex 4.72746 2.37764 14
      vertex 4.72746 -2.37764 14
      vertex 4.98022 -2.44537 14
    endloop
  endfacet
  facet normal -0 0 1
    outer loop
      vertex 4.48316 2.28386 14
      vertex 4.72746 -2.37764 14
      vertex 4.72746 2.37764 14
    endloop
  endfacet
  facet normal 0 0 1
    outer loop
      vertex 4.48316 2.28386 14
      vertex 4.48316 -2.28386 14
      vertex 4.72746 -2.37764 14
    endloop
  endfacet
  facet normal -0 0 1
    outer loop
      vertex 4.25 2.16506 14
      vertex 4.48316 -2.28386 14
      vertex 4.48316 2.28386 14
    endloop
  endfacet
  facet normal 0 0 1
    outer loop
      vertex 4.25 2.16506 14
      vertex 4.25 -2.16506 14
      vertex 4.48316 -2.28386 14
    endloop
  endfacet
  facet normal -0 0 1
    outer loop
      vertex 4.03054 2.02254 14
      vertex 4.25 -2.16506 14
      vertex 4.25 2.16506 14
    endloop
  endfacet
  facet normal 0 0 1
    outer loop
      vertex 4.03054 2.02254 14
      vertex 4.03054 -2.02254 14
      vertex 4.25 -2.16506 14
    endloop
  endfacet
  facet normal -0 0 1
    outer loop
      vertex 3.82717 1.85786 14
      vertex 4.03054 -2.02254 14
      vertex 4.03054 2.02254 14
    endloop
  endfacet
  facet normal 0 0 1
    outer loop
      vertex 3.82717 1.85786 14
      vertex 3.82717 -1.85786 14
      vertex 4.03054 -2.02254 14
    endloop
  endfacet
  facet normal -0 0 1
    outer loop
      vertex 3.64214 1.67283 14
      vertex 3.82717 -1.85786 14
      vertex 3.82717 1.85786 14
    endloop
  endfacet
  facet normal 0 0 1
    outer loop
      vertex 3.64214 1.67283 14
      vertex 3.64214 -1.67283 14
      vertex 3.82717 -1.85786 14
    endloop
  endfacet
  facet normal -0 0 1
    outer loop
      vertex 3.47746 1.46946 14
      vertex 3.64214 -1.67283 14
      vertex 3.64214 1.67283 14
    endloop
  endfacet
  facet normal 0 0 1
    outer loop
      vertex 3.47746 1.46946 14
      vertex 3.47746 -1.46946 14
      vertex 3.64214 -1.67283 14
    endloop
  endfacet
  facet normal -0 0 1
    outer loop
      vertex 3.33494 1.25 14
      vertex 3.47746 -1.46946 14
      vertex 3.47746 1.46946 14
    endloop
  endfacet
  facet normal 0 0 1
    outer loop
      vertex 3.33494 1.25 14
      vertex 3.33494 -1.25 14
      vertex 3.47746 -1.46946 14
    endloop
  endfacet
  facet normal -0 0 1
    outer loop
      vertex 3.21614 1.01684 14
      vertex 3.33494 -1.25 14
      vertex 3.33494 1.25 14
    endloop
  endfacet
  facet normal 0 0 1
    outer loop
      vertex 3.21614 1.01684 14
      vertex 3.21614 -1.01684 14
      vertex 3.33494 -1.25 14
    endloop
  endfacet
  facet normal -0 0 1
    outer loop
      vertex 3.12236 0.772542 14
      vertex 3.21614 -1.01684 14
      vertex 3.21614 1.01684 14
    endloop
  endfacet
  facet normal 0 0 1
    outer loop
      vertex 3.12236 0.772542 14
      vertex 3.12236 -0.772542 14
      vertex 3.21614 -1.01684 14
    endloop
  endfacet
  facet normal -0 0 1
    outer loop
      vertex 3.05463 0.519779 14
      vertex 3.12236 -0.772542 14
      vertex 3.12236 0.772542 14
    endloop
  endfacet
  facet normal 0 0 1
    outer loop
      vertex 3.05463 0.519779 14
      vertex 3.05463 -0.519779 14
      vertex 3.12236 -0.772542 14
    endloop
  endfacet
  facet normal -0 0 1
    outer loop
      vertex 3.01369 0.261321 14
      vertex 3.05463 -0.519779 14
      vertex 3.05463 0.519779 14
    endloop
  endfacet
  facet normal 0 0 1
    outer loop
      vertex 3.01369 0.261321 14
      vertex 3.01369 -0.261321 14
      vertex 3.05463 -0.519779 14
    endloop
  endfacet
  facet normal 0 -0 1
    outer loop
      vertex 3.01369 -0.261321 14
      vertex 3.01369 0.261321 14
      vertex 3 0 14
    endloop
  endfacet
  facet normal 0.965925 -0.258821 0
    outer loop
      vertex 3.05463 0.519779 16
      vertex 3.12236 0.772542 14
      vertex 3.12236 0.772542 16
    endloop
  endfacet
  facet normal 0.965925 -0.258821 0
    outer loop
      vertex 3.12236 0.772542 14
      vertex 3.05463 0.519779 16
      vertex 3.05463 0.519779 14
    endloop
  endfacet
  facet normal 0.99863 -0.0523341 0
    outer loop
      vertex 3 0 16
      vertex 3.01369 0.261321 14
      vertex 3.01369 0.261321 16
    endloop
  endfacet
  facet normal 0.99863 -0.0523341 0
    outer loop
      vertex 3.01369 0.261321 14
      vertex 3 0 16
      vertex 3 0 14
    endloop
  endfacet
  facet normal 0.62932 -0.777146 0
    outer loop
      vertex 3.82717 1.85786 14
      vertex 4.03054 2.02254 16
      vertex 3.82717 1.85786 16
    endloop
  endfacet
  facet normal 0.62932 -0.777146 0
    outer loop
      vertex 4.03054 2.02254 16
      vertex 3.82717 1.85786 14
      vertex 4.03054 2.02254 14
    endloop
  endfacet
  facet normal 0.358368 -0.93358 0
    outer loop
      vertex 4.48316 2.28386 14
      vertex 4.72746 2.37764 16
      vertex 4.48316 2.28386 16
    endloop
  endfacet
  facet normal 0.358368 -0.93358 0
    outer loop
      vertex 4.72746 2.37764 16
      vertex 4.48316 2.28386 14
      vertex 4.72746 2.37764 14
    endloop
  endfacet
  facet normal 0.156434 -0.987688 0
    outer loop
      vertex 4.98022 2.44537 14
      vertex 5.23868 2.4863 16
      vertex 4.98022 2.44537 16
    endloop
  endfacet
  facet normal 0.156434 -0.987688 0
    outer loop
      vertex 5.23868 2.4863 16
      vertex 4.98022 2.44537 14
      vertex 5.23868 2.4863 14
    endloop
  endfacet
  facet normal -0.987688 0.156434 0
    outer loop
      vertex 7.94537 -0.519779 14
      vertex 7.9863 -0.261321 16
      vertex 7.9863 -0.261321 14
    endloop
  endfacet
  facet normal -0.987688 0.156434 0
    outer loop
      vertex 7.9863 -0.261321 16
      vertex 7.94537 -0.519779 14
      vertex 7.94537 -0.519779 16
    endloop
  endfacet
  facet normal 0.987688 0.156434 0
    outer loop
      vertex 3.05463 -0.519779 16
      vertex 3.01369 -0.261321 14
      vertex 3.01369 -0.261321 16
    endloop
  endfacet
  facet normal 0.987688 0.156434 0
    outer loop
      vertex 3.01369 -0.261321 14
      vertex 3.05463 -0.519779 16
      vertex 3.05463 -0.519779 14
    endloop
  endfacet
  facet normal -0.45399 0.891007 0
    outer loop
      vertex 6.75 -2.16506 14
      vertex 6.51684 -2.28386 16
      vertex 6.75 -2.16506 16
    endloop
  endfacet
  facet normal -0.45399 0.891007 0
    outer loop
      vertex 6.51684 -2.28386 16
      vertex 6.75 -2.16506 14
      vertex 6.51684 -2.28386 14
    endloop
  endfacet
  facet normal -0.156434 -0.987688 0
    outer loop
      vertex 5.76132 2.4863 14
      vertex 6.01978 2.44537 16
      vertex 5.76132 2.4863 16
    endloop
  endfacet
  facet normal -0.156434 -0.987688 -0
    outer loop
      vertex 6.01978 2.44537 16
      vertex 5.76132 2.4863 14
      vertex 6.01978 2.44537 14
    endloop
  endfacet
  facet normal -0.358368 -0.93358 0
    outer loop
      vertex 6.27254 2.37764 14
      vertex 6.51684 2.28386 16
      vertex 6.27254 2.37764 16
    endloop
  endfacet
  facet normal -0.358368 -0.93358 -0
    outer loop
      vertex 6.51684 2.28386 16
      vertex 6.27254 2.37764 14
      vertex 6.51684 2.28386 14
    endloop
  endfacet
  facet normal 0.838671 -0.544638 0
    outer loop
      vertex 3.33494 1.25 16
      vertex 3.47746 1.46946 14
      vertex 3.47746 1.46946 16
    endloop
  endfacet
  facet normal 0.838671 -0.544638 0
    outer loop
      vertex 3.47746 1.46946 14
      vertex 3.33494 1.25 16
      vertex 3.33494 1.25 14
    endloop
  endfacet
  facet normal 0.99863 0.0523341 0
    outer loop
      vertex 3.01369 -0.261321 16
      vertex 3 0 14
      vertex 3 0 16
    endloop
  endfacet
  facet normal 0.99863 0.0523341 0
    outer loop
      vertex 3 0 14
      vertex 3.01369 -0.261321 16
      vertex 3.01369 -0.261321 14
    endloop
  endfacet
  facet normal 0.707107 -0.707107 0
    outer loop
      vertex 3.64214 1.67283 16
      vertex 3.82717 1.85786 14
      vertex 3.82717 1.85786 16
    endloop
  endfacet
  facet normal 0.707107 -0.707107 0
    outer loop
      vertex 3.82717 1.85786 14
      vertex 3.64214 1.67283 16
      vertex 3.64214 1.67283 14
    endloop
  endfacet
  facet normal 0.544638 -0.838671 0
    outer loop
      vertex 4.03054 2.02254 14
      vertex 4.25 2.16506 16
      vertex 4.03054 2.02254 16
    endloop
  endfacet
  facet normal 0.544638 -0.838671 0
    outer loop
      vertex 4.25 2.16506 16
      vertex 4.03054 2.02254 14
      vertex 4.25 2.16506 14
    endloop
  endfacet
  facet normal -0.707107 0.707107 0
    outer loop
      vertex 7.17283 -1.85786 14
      vertex 7.35786 -1.67283 16
      vertex 7.35786 -1.67283 14
    endloop
  endfacet
  facet normal -0.707107 0.707107 0
    outer loop
      vertex 7.35786 -1.67283 16
      vertex 7.17283 -1.85786 14
      vertex 7.17283 -1.85786 16
    endloop
  endfacet
  facet normal -0.93358 0.358368 0
    outer loop
      vertex 7.78386 -1.01684 14
      vertex 7.87764 -0.772542 16
      vertex 7.87764 -0.772542 14
    endloop
  endfacet
  facet normal -0.93358 0.358368 0
    outer loop
      vertex 7.87764 -0.772542 16
      vertex 7.78386 -1.01684 14
      vertex 7.78386 -1.01684 16
    endloop
  endfacet
  facet normal -0.838671 0.544638 0
    outer loop
      vertex 7.52254 -1.46946 14
      vertex 7.66506 -1.25 16
      vertex 7.66506 -1.25 14
    endloop
  endfacet
  facet normal -0.838671 0.544638 0
    outer loop
      vertex 7.66506 -1.25 16
      vertex 7.52254 -1.46946 14
      vertex 7.52254 -1.46946 16
    endloop
  endfacet
  facet normal -0.998629 0.0523377 0
    outer loop
      vertex 7.9863 -0.261321 14
      vertex 8 0 16
      vertex 8 0 14
    endloop
  endfacet
  facet normal -0.998629 0.0523377 0
    outer loop
      vertex 8 0 16
      vertex 7.9863 -0.261321 14
      vertex 7.9863 -0.261321 16
    endloop
  endfacet
  facet normal 0.156434 0.987688 -0
    outer loop
      vertex 5.23868 -2.4863 14
      vertex 4.98022 -2.44537 16
      vertex 5.23868 -2.4863 16
    endloop
  endfacet
  facet normal 0.156434 0.987688 0
    outer loop
      vertex 4.98022 -2.44537 16
      vertex 5.23868 -2.4863 14
      vertex 4.98022 -2.44537 14
    endloop
  endfacet
  facet normal 0.707107 0.707107 0
    outer loop
      vertex 3.82717 -1.85786 16
      vertex 3.64214 -1.67283 14
      vertex 3.64214 -1.67283 16
    endloop
  endfacet
  facet normal 0.707107 0.707107 0
    outer loop
      vertex 3.64214 -1.67283 14
      vertex 3.82717 -1.85786 16
      vertex 3.82717 -1.85786 14
    endloop
  endfacet
  facet normal 0.93358 0.358368 0
    outer loop
      vertex 3.21614 -1.01684 16
      vertex 3.12236 -0.772542 14
      vertex 3.12236 -0.772542 16
    endloop
  endfacet
  facet normal 0.93358 0.358368 0
    outer loop
      vertex 3.12236 -0.772542 14
      vertex 3.21614 -1.01684 16
      vertex 3.21614 -1.01684 14
    endloop
  endfacet
  facet normal 0.965925 0.258821 0
    outer loop
      vertex 3.12236 -0.772542 16
      vertex 3.05463 -0.519779 14
      vertex 3.05463 -0.519779 16
    endloop
  endfacet
  facet normal 0.965925 0.258821 0
    outer loop
      vertex 3.05463 -0.519779 14
      vertex 3.12236 -0.772542 16
      vertex 3.12236 -0.772542 14
    endloop
  endfacet
  facet normal -0.54464 0.83867 0
    outer loop
      vertex 6.96946 -2.02254 14
      vertex 6.75 -2.16506 16
      vertex 6.96946 -2.02254 16
    endloop
  endfacet
  facet normal -0.54464 0.83867 0
    outer loop
      vertex 6.75 -2.16506 16
      vertex 6.96946 -2.02254 14
      vertex 6.75 -2.16506 14
    endloop
  endfacet
  facet normal -0.62932 0.777146 0
    outer loop
      vertex 7.17283 -1.85786 14
      vertex 6.96946 -2.02254 16
      vertex 7.17283 -1.85786 16
    endloop
  endfacet
  facet normal -0.62932 0.777146 0
    outer loop
      vertex 6.96946 -2.02254 16
      vertex 7.17283 -1.85786 14
      vertex 6.96946 -2.02254 14
    endloop
  endfacet
  facet normal -0.965925 0.258821 0
    outer loop
      vertex 7.87764 -0.772542 14
      vertex 7.94537 -0.519779 16
      vertex 7.94537 -0.519779 14
    endloop
  endfacet
  facet normal -0.965925 0.258821 0
    outer loop
      vertex 7.94537 -0.519779 16
      vertex 7.87764 -0.772542 14
      vertex 7.87764 -0.772542 16
    endloop
  endfacet
  facet normal -0.891006 0.453991 0
    outer loop
      vertex 7.66506 -1.25 14
      vertex 7.78386 -1.01684 16
      vertex 7.78386 -1.01684 14
    endloop
  endfacet
  facet normal -0.891006 0.453991 0
    outer loop
      vertex 7.78386 -1.01684 16
      vertex 7.66506 -1.25 14
      vertex 7.66506 -1.25 16
    endloop
  endfacet
  facet normal 0.358368 0.93358 -0
    outer loop
      vertex 4.72746 -2.37764 14
      vertex 4.48316 -2.28386 16
      vertex 4.72746 -2.37764 16
    endloop
  endfacet
  facet normal 0.358368 0.93358 0
    outer loop
      vertex 4.48316 -2.28386 16
      vertex 4.72746 -2.37764 14
      vertex 4.48316 -2.28386 14
    endloop
  endfacet
  facet normal 0.0523377 0.998629 -0
    outer loop
      vertex 5.5 -2.5 14
      vertex 5.23868 -2.4863 16
      vertex 5.5 -2.5 16
    endloop
  endfacet
  facet normal 0.0523377 0.998629 0
    outer loop
      vertex 5.23868 -2.4863 16
      vertex 5.5 -2.5 14
      vertex 5.23868 -2.4863 14
    endloop
  endfacet
  facet normal 0.62932 0.777146 -0
    outer loop
      vertex 4.03054 -2.02254 14
      vertex 3.82717 -1.85786 16
      vertex 4.03054 -2.02254 16
    endloop
  endfacet
  facet normal 0.62932 0.777146 0
    outer loop
      vertex 3.82717 -1.85786 16
      vertex 4.03054 -2.02254 14
      vertex 3.82717 -1.85786 14
    endloop
  endfacet
  facet normal 0.777146 0.62932 0
    outer loop
      vertex 3.64214 -1.67283 16
      vertex 3.47746 -1.46946 14
      vertex 3.47746 -1.46946 16
    endloop
  endfacet
  facet normal 0.777146 0.62932 0
    outer loop
      vertex 3.47746 -1.46946 14
      vertex 3.64214 -1.67283 16
      vertex 3.64214 -1.67283 14
    endloop
  endfacet
  facet normal 0.891006 0.453991 0
    outer loop
      vertex 3.33494 -1.25 16
      vertex 3.21614 -1.01684 14
      vertex 3.21614 -1.01684 16
    endloop
  endfacet
  facet normal 0.891006 0.453991 0
    outer loop
      vertex 3.21614 -1.01684 14
      vertex 3.33494 -1.25 16
      vertex 3.33494 -1.25 14
    endloop
  endfacet
  facet normal -0.777146 0.62932 0
    outer loop
      vertex 7.35786 -1.67283 14
      vertex 7.52254 -1.46946 16
      vertex 7.52254 -1.46946 14
    endloop
  endfacet
  facet normal -0.777146 0.62932 0
    outer loop
      vertex 7.52254 -1.46946 16
      vertex 7.35786 -1.67283 14
      vertex 7.35786 -1.67283 16
    endloop
  endfacet
  facet normal 0.54464 0.83867 -0
    outer loop
      vertex 4.25 -2.16506 14
      vertex 4.03054 -2.02254 16
      vertex 4.25 -2.16506 16
    endloop
  endfacet
  facet normal 0.54464 0.83867 0
    outer loop
      vertex 4.03054 -2.02254 16
      vertex 4.25 -2.16506 14
      vertex 4.03054 -2.02254 14
    endloop
  endfacet
  facet normal 0.45399 0.891007 -0
    outer loop
      vertex 4.48316 -2.28386 14
      vertex 4.25 -2.16506 16
      vertex 4.48316 -2.28386 16
    endloop
  endfacet
  facet normal 0.45399 0.891007 0
    outer loop
      vertex 4.25 -2.16506 16
      vertex 4.48316 -2.28386 14
      vertex 4.25 -2.16506 14
    endloop
  endfacet
  facet normal 0.838671 0.544638 0
    outer loop
      vertex 3.47746 -1.46946 16
      vertex 3.33494 -1.25 14
      vertex 3.33494 -1.25 16
    endloop
  endfacet
  facet normal 0.838671 0.544638 0
    outer loop
      vertex 3.33494 -1.25 14
      vertex 3.47746 -1.46946 16
      vertex 3.47746 -1.46946 14
    endloop
  endfacet
  facet normal -0.358368 0.93358 0
    outer loop
      vertex 6.51684 -2.28386 14
      vertex 6.27254 -2.37764 16
      vertex 6.51684 -2.28386 16
    endloop
  endfacet
  facet normal -0.358368 0.93358 0
    outer loop
      vertex 6.27254 -2.37764 16
      vertex 6.51684 -2.28386 14
      vertex 6.27254 -2.37764 14
    endloop
  endfacet
  facet normal -0.258821 0.965925 0
    outer loop
      vertex 6.27254 -2.37764 14
      vertex 6.01978 -2.44537 16
      vertex 6.27254 -2.37764 16
    endloop
  endfacet
  facet normal -0.258821 0.965925 0
    outer loop
      vertex 6.01978 -2.44537 16
      vertex 6.27254 -2.37764 14
      vertex 6.01978 -2.44537 14
    endloop
  endfacet
  facet normal 0.258821 0.965925 -0
    outer loop
      vertex 4.98022 -2.44537 14
      vertex 4.72746 -2.37764 16
      vertex 4.98022 -2.44537 16
    endloop
  endfacet
  facet normal 0.258821 0.965925 0
    outer loop
      vertex 4.72746 -2.37764 16
      vertex 4.98022 -2.44537 14
      vertex 4.72746 -2.37764 14
    endloop
  endfacet
  facet normal -1 0 0
    outer loop
      vertex 10 11.1514 16.3845
      vertex 10 13.6995 19.2099
      vertex 10 14.1058 16.9055
    endloop
  endfacet
  facet normal -1 0 0
    outer loop
      vertex 10 13.6995 19.2099
      vertex 10 11.1514 16.3845
      vertex 10 10.745 18.689
    endloop
  endfacet
  facet normal -1 0 0
    outer loop
      vertex 10 11.9606 11.7953
      vertex 10 14.5104 14.6109
      vertex 10 14.915 12.3163
    endloop
  endfacet
  facet normal -1 0 0
    outer loop
      vertex 10 14.5104 14.6109
      vertex 10 11.9606 11.7953
      vertex 10 11.556 14.0899
    endloop
  endfacet
  facet normal 0 -0.173648 0.984808
    outer loop
      vertex 10 13.6995 19.2099
      vertex 17 10.745 18.689
      vertex 17 13.6995 19.2099
    endloop
  endfacet
  facet normal 0 -0.173648 0.984808
    outer loop
      vertex 17 10.745 18.689
      vertex 10 13.6995 19.2099
      vertex 10 10.745 18.689
    endloop
  endfacet
  facet normal 1 0 0
    outer loop
      vertex 17 14.1058 16.9055
      vertex 17 11.556 14.0899
      vertex 17 14.5104 14.6109
    endloop
  endfacet
  facet normal 1 0 -0
    outer loop
      vertex 17 11.556 14.0899
      vertex 17 14.1058 16.9055
      vertex 17 11.1514 16.3845
    endloop
  endfacet
  facet normal 1 0 0
    outer loop
      vertex 17 13.6995 19.2099
      vertex 17 10.7468 18.6791
      vertex 17 13.7012 19.2001
    endloop
  endfacet
  facet normal 1 0 -0
    outer loop
      vertex 17 10.7468 18.6791
      vertex 17 13.6995 19.2099
      vertex 17 10.745 18.689
    endloop
  endfacet
  facet normal 0 0.984808 0.173648
    outer loop
      vertex 18.2679 14.915 12.3163
      vertex 17 14.5104 14.6109
      vertex 18.2679 14.5104 14.6109
    endloop
  endfacet
  facet normal -0 0.984808 0.173648
    outer loop
      vertex 10 14.915 12.3163
      vertex 15.25 14.6111 14.0397
      vertex 18.2679 14.915 12.3163
    endloop
  endfacet
  facet normal -1.61941e-07 0.984808 0.173648
    outer loop
      vertex 17 14.5104 14.6109
      vertex 18.2679 14.915 12.3163
      vertex 15.25 14.6111 14.0397
    endloop
  endfacet
  facet normal 0 0.984808 0.173648
    outer loop
      vertex 17 14.1058 16.9055
      vertex 17 13.7012 19.2001
      vertex 17.698 13.7012 19.2001
    endloop
  endfacet
  facet normal -0 0.984808 0.173648
    outer loop
      vertex 17 14.1058 16.9055
      vertex 17.698 13.7012 19.2001
      vertex 17.698 14.1058 16.9055
    endloop
  endfacet
  facet normal -1.28068e-08 0.984808 0.173648
    outer loop
      vertex 17 13.7012 19.2001
      vertex 17 14.1058 16.9055
      vertex 15.25 14.0034 17.4865
    endloop
  endfacet
  facet normal -3.6769e-08 0.984808 0.173648
    outer loop
      vertex 17 14.5104 14.6109
      vertex 15.25 14.0034 17.4865
      vertex 17 14.1058 16.9055
    endloop
  endfacet
  facet normal -1.65566e-07 0.984808 0.173648
    outer loop
      vertex 15.25 14.0034 17.4865
      vertex 17 14.5104 14.6109
      vertex 15.25 14.6111 14.0397
    endloop
  endfacet
  facet normal -2.3135e-05 0.984804 0.173671
    outer loop
      vertex 15.25 14.0034 17.4865
      vertex 17 13.6995 19.2099
      vertex 17 13.7012 19.2001
    endloop
  endfacet
  facet normal 0 0.984808 0.173648
    outer loop
      vertex 17 13.6995 19.2099
      vertex 15.25 14.0034 17.4865
      vertex 10 13.6995 19.2099
    endloop
  endfacet
  facet normal -0 0.984808 0.173648
    outer loop
      vertex 11.75 14.0034 17.4865
      vertex 10 13.6995 19.2099
      vertex 15.25 14.0034 17.4865
    endloop
  endfacet
  facet normal -2.06974e-08 0.984808 0.173648
    outer loop
      vertex 11.75 14.0034 17.4865
      vertex 10 14.1058 16.9055
      vertex 10 13.6995 19.2099
    endloop
  endfacet
  facet normal 0 0.984808 0.173648
    outer loop
      vertex 10 14.1058 16.9055
      vertex 10 14.5104 14.6109
      vertex 8.73205 14.1058 16.9055
    endloop
  endfacet
  facet normal 3.6769e-08 0.984808 0.173648
    outer loop
      vertex 11.75 14.0034 17.4865
      vertex 10 14.5104 14.6109
      vertex 10 14.1058 16.9055
    endloop
  endfacet
  facet normal 1.65566e-07 0.984808 0.173648
    outer loop
      vertex 11.75 14.6111 14.0397
      vertex 10 14.5104 14.6109
      vertex 11.75 14.0034 17.4865
    endloop
  endfacet
  facet normal 1.91149e-07 0.984808 0.173648
    outer loop
      vertex 11.75 14.6111 14.0397
      vertex 10 14.915 12.3163
      vertex 10 14.5104 14.6109
    endloop
  endfacet
  facet normal 0 0.984808 0.173648
    outer loop
      vertex 15.25 14.6111 14.0397
      vertex 10 14.915 12.3163
      vertex 11.75 14.6111 14.0397
    endloop
  endfacet
  facet normal 0 0.984808 0.173648
    outer loop
      vertex 8.73205 14.1058 16.9055
      vertex 10 14.5104 14.6109
      vertex 8.73205 14.5104 14.6109
    endloop
  endfacet
  facet normal -8.12145e-08 0.173648 -0.984808
    outer loop
      vertex 18.2679 14.915 12.3163
      vertex 23.5 17.9307 12.848
      vertex 20 11.9606 11.7953
    endloop
  endfacet
  facet normal -7.00024e-08 0.173648 -0.984808
    outer loop
      vertex 23.5 17.9307 12.848
      vertex 18.2679 14.915 12.3163
      vertex 20.9019 19.4079 13.1085
    endloop
  endfacet
  facet normal 0 0.173648 -0.984808
    outer loop
      vertex 10 11.9606 11.7953
      vertex 18.2679 14.915 12.3163
      vertex 20 11.9606 11.7953
    endloop
  endfacet
  facet normal 0 0.173648 -0.984808
    outer loop
      vertex 18.2679 14.915 12.3163
      vertex 10 11.9606 11.7953
      vertex 10 14.915 12.3163
    endloop
  endfacet
  facet normal -9.91277e-08 -0.984808 -0.173649
    outer loop
      vertex 15.25 11.0489 16.9656
      vertex 17 11.556 14.0899
      vertex 17 11.1514 16.3845
    endloop
  endfacet
  facet normal 2.54501e-07 -0.984808 -0.173648
    outer loop
      vertex 15.25 11.6567 13.5187
      vertex 17 11.556 14.0899
      vertex 15.25 11.0489 16.9656
    endloop
  endfacet
  facet normal 1.33977e-07 -0.984808 -0.173648
    outer loop
      vertex 20 11.9606 11.7953
      vertex 17 11.556 14.0899
      vertex 15.25 11.6567 13.5187
    endloop
  endfacet
  facet normal -0 -0.984808 -0.173648
    outer loop
      vertex 20 11.9606 11.7953
      vertex 15.25 11.6567 13.5187
      vertex 10 11.9606 11.7953
    endloop
  endfacet
  facet normal 0 -0.984808 -0.173648
    outer loop
      vertex 17 11.556 14.0899
      vertex 20 11.9606 11.7953
      vertex 20 11.556 14.0899
    endloop
  endfacet
  facet normal 0 -0.984808 -0.173648
    outer loop
      vertex 11.75 11.0489 16.9656
      vertex 17 10.745 18.689
      vertex 10 10.745 18.689
    endloop
  endfacet
  facet normal 2.3135e-05 -0.984804 -0.173671
    outer loop
      vertex 17 10.745 18.689
      vertex 15.25 11.0489 16.9656
      vertex 17 10.7468 18.6791
    endloop
  endfacet
  facet normal -0 -0.984808 -0.173648
    outer loop
      vertex 15.25 11.0489 16.9656
      vertex 17 10.745 18.689
      vertex 11.75 11.0489 16.9656
    endloop
  endfacet
  facet normal 2.06974e-08 -0.984808 -0.173648
    outer loop
      vertex 10 11.1514 16.3845
      vertex 11.75 11.0489 16.9656
      vertex 10 10.745 18.689
    endloop
  endfacet
  facet normal -0 -0.984808 -0.173649
    outer loop
      vertex 10 11.556 14.0899
      vertex 10 11.1514 16.3845
      vertex 7 11.556 14.0899
    endloop
  endfacet
  facet normal 9.91277e-08 -0.984808 -0.173649
    outer loop
      vertex 10 11.1514 16.3845
      vertex 10 11.556 14.0899
      vertex 11.75 11.0489 16.9656
    endloop
  endfacet
  facet normal -2.54501e-07 -0.984808 -0.173648
    outer loop
      vertex 10 11.556 14.0899
      vertex 11.75 11.6567 13.5187
      vertex 11.75 11.0489 16.9656
    endloop
  endfacet
  facet normal 0 -0.984808 -0.173648
    outer loop
      vertex 11.75 11.6567 13.5187
      vertex 10 11.9606 11.7953
      vertex 15.25 11.6567 13.5187
    endloop
  endfacet
  facet normal -1.91149e-07 -0.984808 -0.173648
    outer loop
      vertex 10 11.9606 11.7953
      vertex 11.75 11.6567 13.5187
      vertex 10 11.556 14.0899
    endloop
  endfacet
  facet normal 1.28068e-08 -0.984808 -0.173648
    outer loop
      vertex 17 11.1514 16.3845
      vertex 17 10.7468 18.6791
      vertex 15.25 11.0489 16.9656
    endloop
  endfacet
  facet normal 0 -0.984808 -0.173648
    outer loop
      vertex 17 10.7468 18.6791
      vertex 17 11.1514 16.3845
      vertex 20 10.7468 18.6791
    endloop
  endfacet
  facet normal 0 -0.984808 -0.173648
    outer loop
      vertex 20 10.7468 18.6791
      vertex 17 11.1514 16.3845
      vertex 20 11.1514 16.3845
    endloop
  endfacet
  facet normal 0 -0.984808 -0.173649
    outer loop
      vertex 7 11.1514 16.3845
      vertex 7 11.556 14.0899
      vertex 10 11.1514 16.3845
    endloop
  endfacet
  facet normal 7.00024e-08 -0.173648 0.984808
    outer loop
      vertex 18.2679 14.5104 14.6109
      vertex 23.5 17.5261 15.1426
      vertex 20.9019 19.0033 15.4031
    endloop
  endfacet
  facet normal 8.12145e-08 -0.173648 0.984808
    outer loop
      vertex 23.5 17.5261 15.1426
      vertex 18.2679 14.5104 14.6109
      vertex 20 11.556 14.0899
    endloop
  endfacet
  facet normal 0 -0.173648 0.984808
    outer loop
      vertex 17 11.556 14.0899
      vertex 18.2679 14.5104 14.6109
      vertex 17 14.5104 14.6109
    endloop
  endfacet
  facet normal 0 -0.173648 0.984808
    outer loop
      vertex 18.2679 14.5104 14.6109
      vertex 17 11.556 14.0899
      vertex 20 11.556 14.0899
    endloop
  endfacet
  facet normal 1.23837e-07 -0.173648 0.984808
    outer loop
      vertex 17.698 13.7012 19.2001
      vertex 21.8117 17.4055 19.8533
      vertex 18.914 18.1702 19.9881
    endloop
  endfacet
  facet normal 1.0304e-07 -0.173648 0.984808
    outer loop
      vertex 21.8117 17.4055 19.8533
      vertex 17.698 13.7012 19.2001
      vertex 20 10.7468 18.6791
    endloop
  endfacet
  facet normal 0 -0.173648 0.984808
    outer loop
      vertex 17 10.7468 18.6791
      vertex 17.698 13.7012 19.2001
      vertex 17 13.7012 19.2001
    endloop
  endfacet
  facet normal 0 -0.173648 0.984808
    outer loop
      vertex 17.698 13.7012 19.2001
      vertex 17 10.7468 18.6791
      vertex 20 10.7468 18.6791
    endloop
  endfacet
  facet normal 0 -0.173648 0.984808
    outer loop
      vertex 8.73205 14.1058 16.9055
      vertex 10 11.1514 16.3845
      vertex 10 14.1058 16.9055
    endloop
  endfacet
  facet normal 0 -0.173648 0.984808
    outer loop
      vertex 8.73205 14.1058 16.9055
      vertex 7 11.1514 16.3845
      vertex 10 11.1514 16.3845
    endloop
  endfacet
  facet normal -3.41122e-07 -0.173648 0.984808
    outer loop
      vertex 3.5 17.1215 17.4372
      vertex 8.73205 14.1058 16.9055
      vertex 6.09808 18.5987 17.6977
    endloop
  endfacet
  facet normal -1.91236e-07 -0.173648 0.984808
    outer loop
      vertex 8.73205 14.1058 16.9055
      vertex 3.5 17.1215 17.4372
      vertex 7 11.1514 16.3845
    endloop
  endfacet
  facet normal -1.0304e-07 0.173648 -0.984808
    outer loop
      vertex 17.698 14.1058 16.9055
      vertex 21.8117 17.8101 17.5587
      vertex 20 11.1514 16.3845
    endloop
  endfacet
  facet normal -1.23837e-07 0.173648 -0.984808
    outer loop
      vertex 21.8117 17.8101 17.5587
      vertex 17.698 14.1058 16.9055
      vertex 18.914 18.5748 17.6935
    endloop
  endfacet
  facet normal 0 0.173648 -0.984808
    outer loop
      vertex 17 11.1514 16.3845
      vertex 17.698 14.1058 16.9055
      vertex 20 11.1514 16.3845
    endloop
  endfacet
  facet normal 0 0.173648 -0.984808
    outer loop
      vertex 17.698 14.1058 16.9055
      vertex 17 11.1514 16.3845
      vertex 17 14.1058 16.9055
    endloop
  endfacet
  facet normal 0 0.173648 -0.984808
    outer loop
      vertex 10 11.556 14.0899
      vertex 8.73205 14.5104 14.6109
      vertex 10 14.5104 14.6109
    endloop
  endfacet
  facet normal 0 0.173648 -0.984808
    outer loop
      vertex 7 11.556 14.0899
      vertex 8.73205 14.5104 14.6109
      vertex 10 11.556 14.0899
    endloop
  endfacet
  facet normal 8.12145e-08 0.173648 -0.984808
    outer loop
      vertex 3.5 17.5261 15.1426
      vertex 8.73205 14.5104 14.6109
      vertex 7 11.556 14.0899
    endloop
  endfacet
  facet normal 7.00024e-08 0.173648 -0.984808
    outer loop
      vertex 8.73205 14.5104 14.6109
      vertex 3.5 17.5261 15.1426
      vertex 6.09808 19.0033 15.4031
    endloop
  endfacet
  facet normal 0.5 0.852869 0.150384
    outer loop
      vertex 23.5 17.5261 15.1426
      vertex 20.9019 19.4079 13.1085
      vertex 20.9019 19.0033 15.4031
    endloop
  endfacet
  facet normal 0.5 0.852869 0.150384
    outer loop
      vertex 20.9019 19.4079 13.1085
      vertex 23.5 17.5261 15.1426
      vertex 23.5 17.9307 12.848
    endloop
  endfacet
  facet normal -0.866025 0.492404 0.0868241
    outer loop
      vertex 18.2679 14.915 12.3163
      vertex 20.9019 19.0033 15.4031
      vertex 20.9019 19.4079 13.1085
    endloop
  endfacet
  facet normal -0.866025 0.492404 0.0868241
    outer loop
      vertex 20.9019 19.0033 15.4031
      vertex 18.2679 14.915 12.3163
      vertex 18.2679 14.5104 14.6109
    endloop
  endfacet
  facet normal 0.866025 -0.492404 -0.0868241
    outer loop
      vertex 23.5 17.5261 15.1426
      vertex 20 11.9606 11.7953
      vertex 23.5 17.9307 12.848
    endloop
  endfacet
  facet normal 0.866025 -0.492404 -0.0868241
    outer loop
      vertex 20 11.9606 11.7953
      vertex 23.5 17.5261 15.1426
      vertex 20 11.556 14.0899
    endloop
  endfacet
  facet normal 0.258819 0.951251 0.167731
    outer loop
      vertex 21.8117 17.4055 19.8533
      vertex 18.914 18.5748 17.6935
      vertex 18.914 18.1702 19.9881
    endloop
  endfacet
  facet normal 0.258819 0.951251 0.167731
    outer loop
      vertex 18.914 18.5748 17.6935
      vertex 21.8117 17.4055 19.8533
      vertex 21.8117 17.8101 17.5587
    endloop
  endfacet
  facet normal 0.965926 -0.254887 -0.0449435
    outer loop
      vertex 21.8117 17.4055 19.8533
      vertex 20 11.1514 16.3845
      vertex 21.8117 17.8101 17.5587
    endloop
  endfacet
  facet normal 0.965926 -0.254887 -0.0449435
    outer loop
      vertex 20 11.1514 16.3845
      vertex 21.8117 17.4055 19.8533
      vertex 20 10.7468 18.6791
    endloop
  endfacet
  facet normal -0.965926 0.254887 0.0449435
    outer loop
      vertex 17.698 14.1058 16.9055
      vertex 18.914 18.1702 19.9881
      vertex 18.914 18.5748 17.6935
    endloop
  endfacet
  facet normal -0.965926 0.254887 0.0449435
    outer loop
      vertex 18.914 18.1702 19.9881
      vertex 17.698 14.1058 16.9055
      vertex 17.698 13.7012 19.2001
    endloop
  endfacet
  facet normal -0.5 0.852869 0.150384
    outer loop
      vertex 6.09808 19.0033 15.4031
      vertex 3.5 17.1215 17.4372
      vertex 6.09808 18.5987 17.6977
    endloop
  endfacet
  facet normal -0.5 0.852869 0.150384
    outer loop
      vertex 3.5 17.1215 17.4372
      vertex 6.09808 19.0033 15.4031
      vertex 3.5 17.5261 15.1426
    endloop
  endfacet
  facet normal -0.866025 -0.492404 -0.0868241
    outer loop
      vertex 7 11.556 14.0899
      vertex 3.5 17.1215 17.4372
      vertex 3.5 17.5261 15.1426
    endloop
  endfacet
  facet normal -0.866025 -0.492404 -0.0868242
    outer loop
      vertex 3.5 17.1215 17.4372
      vertex 7 11.556 14.0899
      vertex 7 11.1514 16.3845
    endloop
  endfacet
  facet normal 0.866025 0.492404 0.0868241
    outer loop
      vertex 6.09808 18.5987 17.6977
      vertex 8.73205 14.5104 14.6109
      vertex 6.09808 19.0033 15.4031
    endloop
  endfacet
  facet normal 0.866025 0.492404 0.0868241
    outer loop
      vertex 8.73205 14.5104 14.6109
      vertex 6.09808 18.5987 17.6977
      vertex 8.73205 14.1058 16.9055
    endloop
  endfacet
  facet normal 1 0 0
    outer loop
      vertex 11.75 14.0034 17.4865
      vertex 11.75 11.6567 13.5187
      vertex 11.75 14.6111 14.0397
    endloop
  endfacet
  facet normal 1 0 -0
    outer loop
      vertex 11.75 11.6567 13.5187
      vertex 11.75 14.0034 17.4865
      vertex 11.75 11.0489 16.9656
    endloop
  endfacet
  facet normal 0 0.173648 -0.984808
    outer loop
      vertex 11.75 11.0489 16.9656
      vertex 15.25 14.0034 17.4865
      vertex 15.25 11.0489 16.9656
    endloop
  endfacet
  facet normal 0 0.173648 -0.984808
    outer loop
      vertex 15.25 14.0034 17.4865
      vertex 11.75 11.0489 16.9656
      vertex 11.75 14.0034 17.4865
    endloop
  endfacet
  facet normal -1 0 0
    outer loop
      vertex 15.25 11.6567 13.5187
      vertex 15.25 14.0034 17.4865
      vertex 15.25 14.6111 14.0397
    endloop
  endfacet
  facet normal -1 0 0
    outer loop
      vertex 15.25 14.0034 17.4865
      vertex 15.25 11.6567 13.5187
      vertex 15.25 11.0489 16.9656
    endloop
  endfacet
  facet normal 0 -0.173648 0.984808
    outer loop
      vertex 11.75 14.6111 14.0397
      vertex 15.25 11.6567 13.5187
      vertex 15.25 14.6111 14.0397
    endloop
  endfacet
  facet normal 0 -0.173648 0.984808
    outer loop
      vertex 15.25 11.6567 13.5187
      vertex 11.75 14.6111 14.0397
      vertex 11.75 11.6567 13.5187
    endloop
  endfacet
  facet normal -0.866025 0.492404 0.0868241
    outer loop
      vertex 10.7381 3.35881 12.3095
      vertex 12 4.99032 15.6434
      vertex 12 5.51127 12.689
    endloop
  endfacet
  facet normal -0.866026 0.492404 0.0868242
    outer loop
      vertex 12 4.99032 15.6434
      vertex 10.7381 3.35881 12.3095
      vertex 10.1807 1.88716 15.0963
    endloop
  endfacet
  facet normal 0 -0.173648 0.984808
    outer loop
      vertex 12 4.99032 15.6434
      vertex 15 14.0468 17.2403
      vertex 12 14.0468 17.2403
    endloop
  endfacet
  facet normal -1.08461e-07 -0.173648 0.984808
    outer loop
      vertex 15 14.0468 17.2403
      vertex 12 4.99032 15.6434
      vertex 15 4.19868 15.5038
    endloop
  endfacet
  facet normal -1.23678e-07 -0.173648 0.984808
    outer loop
      vertex 10.1807 1.88716 15.0963
      vertex 15 4.19868 15.5038
      vertex 12 4.99032 15.6434
    endloop
  endfacet
  facet normal -9.2423e-08 -0.173648 0.984808
    outer loop
      vertex 15 4.19868 15.5038
      vertex 10.1807 1.88716 15.0963
      vertex 10.3773 -3.68642 14.1135
    endloop
  endfacet
  facet normal 0.866025 -0.492404 -0.0868241
    outer loop
      vertex 15 4.19868 15.5038
      vertex 10.9347 -2.21477 11.3267
      vertex 15 4.71963 12.5494
    endloop
  endfacet
  facet normal 0.866025 -0.492404 -0.0868241
    outer loop
      vertex 10.9347 -2.21477 11.3267
      vertex 15 4.19868 15.5038
      vertex 10.3773 -3.68642 14.1135
    endloop
  endfacet
  facet normal -8.49494e-08 0.173648 -0.984808
    outer loop
      vertex 10.7381 3.35881 12.3095
      vertex 15 4.71963 12.5494
      vertex 10.9347 -2.21477 11.3267
    endloop
  endfacet
  facet normal -1.33618e-07 0.173648 -0.984808
    outer loop
      vertex 15 4.71963 12.5494
      vertex 10.7381 3.35881 12.3095
      vertex 12 5.51127 12.689
    endloop
  endfacet
  facet normal -1.79436e-07 0.173648 -0.984808
    outer loop
      vertex 12 5.51127 12.689
      vertex 15 14.5677 14.2859
      vertex 15 4.71963 12.5494
    endloop
  endfacet
  facet normal 0 0.173648 -0.984808
    outer loop
      vertex 15 14.5677 14.2859
      vertex 12 5.51127 12.689
      vertex 12 14.5677 14.2859
    endloop
  endfacet
  facet normal -1 0 0
    outer loop
      vertex 12 5.51127 12.689
      vertex 12 14.0468 17.2403
      vertex 12 14.5677 14.2859
    endloop
  endfacet
  facet normal -1 0 0
    outer loop
      vertex 12 14.0468 17.2403
      vertex 12 5.51127 12.689
      vertex 12 4.99032 15.6434
    endloop
  endfacet
  facet normal 1 0 0
    outer loop
      vertex 15 14.0468 17.2403
      vertex 15 4.71963 12.5494
      vertex 15 14.5677 14.2859
    endloop
  endfacet
  facet normal 1 0 -0
    outer loop
      vertex 15 4.71963 12.5494
      vertex 15 14.0468 17.2403
      vertex 15 4.19868 15.5038
    endloop
  endfacet
  facet normal 0 0.984808 0.173648
    outer loop
      vertex 15 14.5677 14.2859
      vertex 12 14.0468 17.2403
      vertex 15 14.0468 17.2403
    endloop
  endfacet
  facet normal 0 0.984808 0.173648
    outer loop
      vertex 12 14.0468 17.2403
      vertex 15 14.5677 14.2859
      vertex 12 14.5677 14.2859
    endloop
  endfacet
  facet normal 1 0 0
    outer loop
      vertex 1 12.1443 11.8787
      vertex 1 14.4364 8.84196
      vertex 1 15.0421 11.1022
    endloop
  endfacet
  facet normal 1 0 0
    outer loop
      vertex 1 14.4364 8.84196
      vertex 1 12.1443 11.8787
      vertex 1 11.5386 9.61841
    endloop
  endfacet
  facet normal 1 0 0
    outer loop
      vertex 1 10.9356 7.36781
      vertex 1 13.2303 4.34074
      vertex 1 13.8334 6.59135
    endloop
  endfacet
  facet normal 1 0 0
    outer loop
      vertex 1 13.2303 4.34074
      vertex 1 10.9356 7.36781
      vertex 1 10.3325 5.1172
    endloop
  endfacet
  facet normal -0 0.258819 0.965926
    outer loop
      vertex -6 15.0421 11.1022
      vertex 1 12.1443 11.8787
      vertex 1 15.0421 11.1022
    endloop
  endfacet
  facet normal 0 0.258819 0.965926
    outer loop
      vertex 1 12.1443 11.8787
      vertex -6 15.0421 11.1022
      vertex -6 12.1443 11.8787
    endloop
  endfacet
  facet normal -1 0 0
    outer loop
      vertex -6 13.8334 6.59135
      vertex -6 11.5386 9.61841
      vertex -6 14.4364 8.84196
    endloop
  endfacet
  facet normal -1 0 -0
    outer loop
      vertex -6 11.5386 9.61841
      vertex -6 13.8334 6.59135
      vertex -6 10.9356 7.36781
    endloop
  endfacet
  facet normal -1 0 0
    outer loop
      vertex -6 15.0395 11.0926
      vertex -6 12.1443 11.8787
      vertex -6 15.0421 11.1022
    endloop
  endfacet
  facet normal -1 0 -0
    outer loop
      vertex -6 12.1443 11.8787
      vertex -6 15.0395 11.0926
      vertex -6 12.1417 11.869
    endloop
  endfacet
  facet normal 0 0.965926 -0.258819
    outer loop
      vertex 2.26795 14.4364 8.84196
      vertex 2.26795 13.8334 6.59135
      vertex 1 14.4364 8.84196
    endloop
  endfacet
  facet normal 0 0.965926 -0.258819
    outer loop
      vertex -0.75 14.5891 9.41185
      vertex -6 15.0421 11.1022
      vertex 1 15.0421 11.1022
    endloop
  endfacet
  facet normal 5.22112e-06 0.965927 -0.258814
    outer loop
      vertex -6 15.0421 11.1022
      vertex -4.25 14.5891 9.41185
      vertex -6 15.0395 11.0926
    endloop
  endfacet
  facet normal 0 0.965926 -0.258819
    outer loop
      vertex -4.25 14.5891 9.41185
      vertex -6 15.0421 11.1022
      vertex -0.75 14.5891 9.41185
    endloop
  endfacet
  facet normal 9.06068e-08 0.965926 -0.258819
    outer loop
      vertex 1 14.4364 8.84196
      vertex -0.75 14.5891 9.41185
      vertex 1 15.0421 11.1022
    endloop
  endfacet
  facet normal 0 0.965926 -0.258819
    outer loop
      vertex 1 13.8334 6.59135
      vertex 1 14.4364 8.84196
      vertex 2.26795 13.8334 6.59135
    endloop
  endfacet
  facet normal 1.18636e-07 0.965926 -0.258819
    outer loop
      vertex 1 14.4364 8.84196
      vertex 1 13.8334 6.59135
      vertex -0.75 14.5891 9.41185
    endloop
  endfacet
  facet normal 1.34277e-08 0.965926 -0.258819
    outer loop
      vertex 1 13.8334 6.59135
      vertex -0.75 13.6833 6.03111
      vertex -0.75 14.5891 9.41185
    endloop
  endfacet
  facet normal 0 0.965926 -0.258819
    outer loop
      vertex -0.75 13.6833 6.03111
      vertex 1 13.2303 4.34074
      vertex -4.25 13.6833 6.03111
    endloop
  endfacet
  facet normal 1.00852e-08 0.965926 -0.258819
    outer loop
      vertex 1 13.2303 4.34074
      vertex -0.75 13.6833 6.03111
      vertex 1 13.8334 6.59135
    endloop
  endfacet
  facet normal -8.29205e-08 0.965926 -0.258819
    outer loop
      vertex -6 14.4364 8.84196
      vertex -6 15.0395 11.0926
      vertex -4.25 14.5891 9.41185
    endloop
  endfacet
  facet normal 0 0.965926 -0.258819
    outer loop
      vertex -6 15.0395 11.0926
      vertex -6 14.4364 8.84196
      vertex -6.69802 15.0395 11.0926
    endloop
  endfacet
  facet normal 0 0.965926 -0.258819
    outer loop
      vertex -6.69802 15.0395 11.0926
      vertex -6 14.4364 8.84196
      vertex -6.69802 14.4364 8.84196
    endloop
  endfacet
  facet normal -1.18636e-07 0.965926 -0.258819
    outer loop
      vertex -4.25 14.5891 9.41185
      vertex -6 13.8334 6.59135
      vertex -6 14.4364 8.84196
    endloop
  endfacet
  facet normal -1.34277e-08 0.965926 -0.258819
    outer loop
      vertex -4.25 13.6833 6.03111
      vertex -6 13.8334 6.59135
      vertex -4.25 14.5891 9.41185
    endloop
  endfacet
  facet normal -8.54418e-09 0.965926 -0.258819
    outer loop
      vertex -7.26795 13.2303 4.34074
      vertex -6 13.8334 6.59135
      vertex -4.25 13.6833 6.03111
    endloop
  endfacet
  facet normal 0 0.965926 -0.258819
    outer loop
      vertex -7.26795 13.2303 4.34074
      vertex -4.25 13.6833 6.03111
      vertex 1 13.2303 4.34074
    endloop
  endfacet
  facet normal 0 0.965926 -0.258819
    outer loop
      vertex -6 13.8334 6.59135
      vertex -7.26795 13.2303 4.34074
      vertex -7.26795 13.8334 6.59135
    endloop
  endfacet
  facet normal 0 -0.258819 -0.965926
    outer loop
      vertex 1 10.3325 5.1172
      vertex -7.26795 13.2303 4.34074
      vertex 1 13.2303 4.34074
    endloop
  endfacet
  facet normal 0 -0.258819 -0.965926
    outer loop
      vertex -9 10.3325 5.1172
      vertex -7.26795 13.2303 4.34074
      vertex 1 10.3325 5.1172
    endloop
  endfacet
  facet normal -1.60122e-08 -0.258819 -0.965926
    outer loop
      vertex -12.5 16.1882 3.54819
      vertex -7.26795 13.2303 4.34074
      vertex -9 10.3325 5.1172
    endloop
  endfacet
  facet normal 3.39838e-08 -0.258819 -0.965926
    outer loop
      vertex -7.26795 13.2303 4.34074
      vertex -12.5 16.1882 3.54819
      vertex -9.90192 17.6371 3.15996
    endloop
  endfacet
  facet normal 0 -0.965926 0.258819
    outer loop
      vertex -9 10.3325 5.1172
      vertex -6 10.9356 7.36781
      vertex -9 10.9356 7.36781
    endloop
  endfacet
  facet normal 0 -0.965926 0.258819
    outer loop
      vertex 1 10.3325 5.1172
      vertex -4.25 10.7855 6.80757
      vertex -9 10.3325 5.1172
    endloop
  endfacet
  facet normal -2.70037e-07 -0.965926 0.25882
    outer loop
      vertex -6 10.9356 7.36781
      vertex -9 10.3325 5.1172
      vertex -4.25 10.7855 6.80757
    endloop
  endfacet
  facet normal 0 -0.965926 0.258819
    outer loop
      vertex -6 11.5386 9.61841
      vertex -6 12.1417 11.869
      vertex -9 12.1417 11.869
    endloop
  endfacet
  facet normal 0 -0.965926 0.258819
    outer loop
      vertex -6 11.5386 9.61841
      vertex -9 12.1417 11.869
      vertex -9 11.5386 9.61841
    endloop
  endfacet
  facet normal -2.24094e-08 -0.965926 0.258819
    outer loop
      vertex -6 12.1417 11.869
      vertex -6 11.5386 9.61841
      vertex -4.25 11.6913 10.1883
    endloop
  endfacet
  facet normal -4.0267e-08 -0.965926 0.258819
    outer loop
      vertex -6 10.9356 7.36781
      vertex -4.25 11.6913 10.1883
      vertex -6 11.5386 9.61841
    endloop
  endfacet
  facet normal -4.37417e-07 -0.965926 0.258819
    outer loop
      vertex -4.25 11.6913 10.1883
      vertex -6 10.9356 7.36781
      vertex -4.25 10.7855 6.80757
    endloop
  endfacet
  facet normal 1.93213e-05 -0.965921 0.258838
    outer loop
      vertex -4.25 11.6913 10.1883
      vertex -6 12.1443 11.8787
      vertex -6 12.1417 11.869
    endloop
  endfacet
  facet normal 0 -0.965926 0.258819
    outer loop
      vertex -6 12.1443 11.8787
      vertex -4.25 11.6913 10.1883
      vertex 1 12.1443 11.8787
    endloop
  endfacet
  facet normal 0 -0.965926 0.258819
    outer loop
      vertex -0.75 11.6913 10.1883
      vertex 1 12.1443 11.8787
      vertex -4.25 11.6913 10.1883
    endloop
  endfacet
  facet normal 5.04384e-08 -0.965926 0.258819
    outer loop
      vertex -0.75 11.6913 10.1883
      vertex 1 11.5386 9.61841
      vertex 1 12.1443 11.8787
    endloop
  endfacet
  facet normal 0 -0.965926 0.258819
    outer loop
      vertex 1 11.5386 9.61841
      vertex 1 10.9356 7.36781
      vertex 4 11.5386 9.61841
    endloop
  endfacet
  facet normal 4.0267e-08 -0.965926 0.258819
    outer loop
      vertex -0.75 11.6913 10.1883
      vertex 1 10.9356 7.36781
      vertex 1 11.5386 9.61841
    endloop
  endfacet
  facet normal 4.37417e-07 -0.965926 0.258819
    outer loop
      vertex -0.75 10.7855 6.80757
      vertex 1 10.9356 7.36781
      vertex -0.75 11.6913 10.1883
    endloop
  endfacet
  facet normal 3.8527e-07 -0.965926 0.258819
    outer loop
      vertex -0.75 10.7855 6.80757
      vertex 1 10.3325 5.1172
      vertex 1 10.9356 7.36781
    endloop
  endfacet
  facet normal 0 -0.965926 0.258819
    outer loop
      vertex -4.25 10.7855 6.80757
      vertex 1 10.3325 5.1172
      vertex -0.75 10.7855 6.80757
    endloop
  endfacet
  facet normal 0 -0.965926 0.258819
    outer loop
      vertex 4 11.5386 9.61841
      vertex 1 10.9356 7.36781
      vertex 4 10.9356 7.36781
    endloop
  endfacet
  facet normal -0 0.258819 0.965926
    outer loop
      vertex -7.26795 13.8334 6.59135
      vertex -6 10.9356 7.36781
      vertex -6 13.8334 6.59135
    endloop
  endfacet
  facet normal 0 0.258819 0.965926
    outer loop
      vertex -7.26795 13.8334 6.59135
      vertex -9 10.9356 7.36781
      vertex -6 10.9356 7.36781
    endloop
  endfacet
  facet normal 7.71187e-08 0.258819 0.965926
    outer loop
      vertex -12.5 16.7912 5.7988
      vertex -7.26795 13.8334 6.59135
      vertex -9.90192 18.2401 5.41057
    endloop
  endfacet
  facet normal 8.49035e-08 0.258819 0.965926
    outer loop
      vertex -7.26795 13.8334 6.59135
      vertex -12.5 16.7912 5.7988
      vertex -9 10.9356 7.36781
    endloop
  endfacet
  facet normal -0 0.258819 0.965926
    outer loop
      vertex -6.69802 15.0395 11.0926
      vertex -6 12.1417 11.869
      vertex -6 15.0395 11.0926
    endloop
  endfacet
  facet normal 2.22108e-07 0.258819 0.965926
    outer loop
      vertex -10.8117 18.6728 10.119
      vertex -6.69802 15.0395 11.0926
      vertex -7.91396 19.4228 9.91806
    endloop
  endfacet
  facet normal 0 0.258819 0.965926
    outer loop
      vertex -6.69802 15.0395 11.0926
      vertex -9 12.1417 11.869
      vertex -6 12.1417 11.869
    endloop
  endfacet
  facet normal 2.7236e-07 0.258819 0.965926
    outer loop
      vertex -6.69802 15.0395 11.0926
      vertex -10.8117 18.6728 10.119
      vertex -9 12.1417 11.869
    endloop
  endfacet
  facet normal 5.58419e-08 0.258819 0.965926
    outer loop
      vertex 2.26795 14.4364 8.84196
      vertex 7.5 17.3943 8.04941
      vertex 4.90192 18.8431 7.66118
    endloop
  endfacet
  facet normal 4.80571e-08 0.258819 0.965926
    outer loop
      vertex 7.5 17.3943 8.04941
      vertex 2.26795 14.4364 8.84196
      vertex 4 11.5386 9.61841
    endloop
  endfacet
  facet normal 0 0.258819 0.965926
    outer loop
      vertex 1 11.5386 9.61841
      vertex 2.26795 14.4364 8.84196
      vertex 1 14.4364 8.84196
    endloop
  endfacet
  facet normal 0 0.258819 0.965926
    outer loop
      vertex 2.26795 14.4364 8.84196
      vertex 1 11.5386 9.61841
      vertex 4 11.5386 9.61841
    endloop
  endfacet
  facet normal 0 -0.258819 -0.965926
    outer loop
      vertex -6 11.5386 9.61841
      vertex -6.69802 14.4364 8.84196
      vertex -6 14.4364 8.84196
    endloop
  endfacet
  facet normal 0 -0.258819 -0.965926
    outer loop
      vertex -9 11.5386 9.61841
      vertex -6.69802 14.4364 8.84196
      vertex -6 11.5386 9.61841
    endloop
  endfacet
  facet normal 2.42372e-08 -0.258819 -0.965926
    outer loop
      vertex -10.8117 18.0697 7.86841
      vertex -6.69802 14.4364 8.84196
      vertex -9 11.5386 9.61841
    endloop
  endfacet
  facet normal -4.84348e-08 -0.258819 -0.965926
    outer loop
      vertex -6.69802 14.4364 8.84196
      vertex -10.8117 18.0697 7.86841
      vertex -7.91396 18.8197 7.66745
    endloop
  endfacet
  facet normal 8.49035e-08 -0.258819 -0.965926
    outer loop
      vertex 2.26795 13.8334 6.59135
      vertex 7.5 16.7912 5.7988
      vertex 4 10.9356 7.36781
    endloop
  endfacet
  facet normal 7.71187e-08 -0.258819 -0.965926
    outer loop
      vertex 7.5 16.7912 5.7988
      vertex 2.26795 13.8334 6.59135
      vertex 4.90192 18.2401 5.41057
    endloop
  endfacet
  facet normal 0 -0.258819 -0.965926
    outer loop
      vertex 1 10.9356 7.36781
      vertex 2.26795 13.8334 6.59135
      vertex 4 10.9356 7.36781
    endloop
  endfacet
  facet normal -0 -0.258819 -0.965926
    outer loop
      vertex 2.26795 13.8334 6.59135
      vertex 1 10.9356 7.36781
      vertex 1 13.8334 6.59135
    endloop
  endfacet
  facet normal -0.5 0.836516 -0.224144
    outer loop
      vertex -9.90192 18.2401 5.41057
      vertex -12.5 16.1882 3.54819
      vertex -12.5 16.7912 5.7988
    endloop
  endfacet
  facet normal -0.5 0.836516 -0.224144
    outer loop
      vertex -12.5 16.1882 3.54819
      vertex -9.90192 18.2401 5.41057
      vertex -9.90192 17.6371 3.15996
    endloop
  endfacet
  facet normal 0.866025 0.482963 -0.12941
    outer loop
      vertex -7.26795 13.8334 6.59135
      vertex -9.90192 17.6371 3.15996
      vertex -9.90192 18.2401 5.41057
    endloop
  endfacet
  facet normal 0.866025 0.482963 -0.12941
    outer loop
      vertex -9.90192 17.6371 3.15996
      vertex -7.26795 13.8334 6.59135
      vertex -7.26795 13.2303 4.34074
    endloop
  endfacet
  facet normal -0.866025 -0.482963 0.12941
    outer loop
      vertex -12.5 16.1882 3.54819
      vertex -9 10.9356 7.36781
      vertex -12.5 16.7912 5.7988
    endloop
  endfacet
  facet normal -0.866025 -0.482963 0.12941
    outer loop
      vertex -9 10.9356 7.36781
      vertex -12.5 16.1882 3.54819
      vertex -9 10.3325 5.1172
    endloop
  endfacet
  facet normal -0.258818 0.933013 -0.25
    outer loop
      vertex -7.91396 19.4228 9.91806
      vertex -10.8117 18.0697 7.86841
      vertex -10.8117 18.6728 10.119
    endloop
  endfacet
  facet normal -0.258818 0.933013 -0.25
    outer loop
      vertex -10.8117 18.0697 7.86841
      vertex -7.91396 19.4228 9.91806
      vertex -7.91396 18.8197 7.66745
    endloop
  endfacet
  facet normal -0.965926 -0.25 0.0669873
    outer loop
      vertex -10.8117 18.0697 7.86841
      vertex -9 12.1417 11.869
      vertex -10.8117 18.6728 10.119
    endloop
  endfacet
  facet normal -0.965926 -0.25 0.0669873
    outer loop
      vertex -9 12.1417 11.869
      vertex -10.8117 18.0697 7.86841
      vertex -9 11.5386 9.61841
    endloop
  endfacet
  facet normal 0.965926 0.25 -0.0669873
    outer loop
      vertex -6.69802 15.0395 11.0926
      vertex -7.91396 18.8197 7.66745
      vertex -7.91396 19.4228 9.91806
    endloop
  endfacet
  facet normal 0.965926 0.25 -0.0669873
    outer loop
      vertex -7.91396 18.8197 7.66745
      vertex -6.69802 15.0395 11.0926
      vertex -6.69802 14.4364 8.84196
    endloop
  endfacet
  facet normal 0.5 0.836516 -0.224144
    outer loop
      vertex 7.5 16.7912 5.7988
      vertex 4.90192 18.8431 7.66118
      vertex 7.5 17.3943 8.04941
    endloop
  endfacet
  facet normal 0.5 0.836516 -0.224144
    outer loop
      vertex 4.90192 18.8431 7.66118
      vertex 7.5 16.7912 5.7988
      vertex 4.90192 18.2401 5.41057
    endloop
  endfacet
  facet normal 0.866025 -0.482963 0.12941
    outer loop
      vertex 4 11.5386 9.61841
      vertex 7.5 16.7912 5.7988
      vertex 7.5 17.3943 8.04941
    endloop
  endfacet
  facet normal 0.866025 -0.482963 0.12941
    outer loop
      vertex 7.5 16.7912 5.7988
      vertex 4 11.5386 9.61841
      vertex 4 10.9356 7.36781
    endloop
  endfacet
  facet normal -0.866025 0.482963 -0.12941
    outer loop
      vertex 4.90192 18.2401 5.41057
      vertex 2.26795 14.4364 8.84196
      vertex 4.90192 18.8431 7.66118
    endloop
  endfacet
  facet normal -0.866025 0.482963 -0.12941
    outer loop
      vertex 2.26795 14.4364 8.84196
      vertex 4.90192 18.2401 5.41057
      vertex 2.26795 13.8334 6.59135
    endloop
  endfacet
  facet normal -1 0 0
    outer loop
      vertex -0.75 13.6833 6.03111
      vertex -0.75 11.6913 10.1883
      vertex -0.75 14.5891 9.41185
    endloop
  endfacet
  facet normal -1 0 -0
    outer loop
      vertex -0.75 11.6913 10.1883
      vertex -0.75 13.6833 6.03111
      vertex -0.75 10.7855 6.80757
    endloop
  endfacet
  facet normal 0 -0.258819 -0.965926
    outer loop
      vertex -4.25 11.6913 10.1883
      vertex -0.75 14.5891 9.41185
      vertex -0.75 11.6913 10.1883
    endloop
  endfacet
  facet normal -0 -0.258819 -0.965926
    outer loop
      vertex -0.75 14.5891 9.41185
      vertex -4.25 11.6913 10.1883
      vertex -4.25 14.5891 9.41185
    endloop
  endfacet
  facet normal 1 0 0
    outer loop
      vertex -4.25 11.6913 10.1883
      vertex -4.25 13.6833 6.03111
      vertex -4.25 14.5891 9.41185
    endloop
  endfacet
  facet normal 1 0 0
    outer loop
      vertex -4.25 13.6833 6.03111
      vertex -4.25 11.6913 10.1883
      vertex -4.25 10.7855 6.80757
    endloop
  endfacet
  facet normal -0 0.258819 0.965926
    outer loop
      vertex -4.25 13.6833 6.03111
      vertex -0.75 10.7855 6.80757
      vertex -0.75 13.6833 6.03111
    endloop
  endfacet
  facet normal 0 0.258819 0.965926
    outer loop
      vertex -0.75 10.7855 6.80757
      vertex -4.25 13.6833 6.03111
      vertex -4.25 10.7855 6.80757
    endloop
  endfacet
  facet normal 0.866025 0.482963 -0.12941
    outer loop
      vertex -1 5.64162 11.5505
      vertex -0.417201 3.89012 8.91399
      vertex -1 4.86516 8.65273
    endloop
  endfacet
  facet normal 0.866025 0.482963 -0.12941
    outer loop
      vertex -0.417201 3.89012 8.91399
      vertex -1 5.64162 11.5505
      vertex 0.219433 3.60147 12.0972
    endloop
  endfacet
  facet normal -0 0.258819 0.965926
    outer loop
      vertex -4 14.5244 9.17037
      vertex -1 5.64162 11.5505
      vertex -1 14.5244 9.17037
    endloop
  endfacet
  facet normal -1.94682e-07 0.258819 0.965926
    outer loop
      vertex -1 5.64162 11.5505
      vertex -4 14.5244 9.17037
      vertex -4 4.86516 11.7586
    endloop
  endfacet
  facet normal -1.11812e-07 0.258819 0.965926
    outer loop
      vertex -4 4.86516 11.7586
      vertex 0.219433 3.60147 12.0972
      vertex -1 5.64162 11.5505
    endloop
  endfacet
  facet normal 7.41792e-10 0.258819 0.965926
    outer loop
      vertex 0.219433 3.60147 12.0972
      vertex -4 4.86516 11.7586
      vertex 0.560605 -2.76488 13.803
    endloop
  endfacet
  facet normal -0.866025 -0.482963 0.129409
    outer loop
      vertex -0.0760297 -2.47622 10.6199
      vertex -4 4.86516 11.7586
      vertex -4 4.08871 8.86078
    endloop
  endfacet
  facet normal -0.866025 -0.482963 0.12941
    outer loop
      vertex -4 4.86516 11.7586
      vertex -0.0760297 -2.47622 10.6199
      vertex 0.560605 -2.76488 13.803
    endloop
  endfacet
  facet normal 2.32758e-07 -0.258819 -0.965926
    outer loop
      vertex -4 4.08871 8.86078
      vertex -0.417201 3.89012 8.91399
      vertex -0.0760297 -2.47622 10.6199
    endloop
  endfacet
  facet normal 2.13706e-07 -0.258819 -0.965926
    outer loop
      vertex -0.417201 3.89012 8.91399
      vertex -4 4.08871 8.86078
      vertex -1 4.86516 8.65273
    endloop
  endfacet
  facet normal 1.53544e-07 -0.258819 -0.965926
    outer loop
      vertex -4 13.748 6.27259
      vertex -1 4.86516 8.65273
      vertex -4 4.08871 8.86078
    endloop
  endfacet
  facet normal 0 -0.258819 -0.965926
    outer loop
      vertex -1 4.86516 8.65273
      vertex -4 13.748 6.27259
      vertex -1 13.748 6.27259
    endloop
  endfacet
  facet normal 1 0 0
    outer loop
      vertex -1 5.64162 11.5505
      vertex -1 13.748 6.27259
      vertex -1 14.5244 9.17037
    endloop
  endfacet
  facet normal 1 0 0
    outer loop
      vertex -1 13.748 6.27259
      vertex -1 5.64162 11.5505
      vertex -1 4.86516 8.65273
    endloop
  endfacet
  facet normal -1 0 0
    outer loop
      vertex -4 13.748 6.27259
      vertex -4 4.86516 11.7586
      vertex -4 14.5244 9.17037
    endloop
  endfacet
  facet normal -1 0 -0
    outer loop
      vertex -4 4.86516 11.7586
      vertex -4 13.748 6.27259
      vertex -4 4.08871 8.86078
    endloop
  endfacet
  facet normal 0 0.965926 -0.258819
    outer loop
      vertex -1 13.748 6.27259
      vertex -4 14.5244 9.17037
      vertex -1 14.5244 9.17037
    endloop
  endfacet
  facet normal 0 0.965926 -0.258819
    outer loop
      vertex -4 14.5244 9.17037
      vertex -1 13.748 6.27259
      vertex -4 13.748 6.27259
    endloop
  endfacet
endsolid OpenSCAD_Model
