solid OpenSCAD_Model
  facet normal -0 0 1
    outer loop
      vertex -0.5 1 3
      vertex 1 0 3
      vertex 1 1 3
    endloop
  endfacet
  facet normal 0 0 1
    outer loop
      vertex 1 0 3
      vertex -0.5 1 3
      vertex -0.5 0 3
    endloop
  endfacet
  facet normal -0 0 1
    outer loop
      vertex 4 1 3
      vertex 5.5 0 3
      vertex 5.5 1 3
    endloop
  endfacet
  facet normal 0 0 1
    outer loop
      vertex 5.5 0 3
      vertex 4 1 3
      vertex 4 0 3
    endloop
  endfacet
  facet normal 0.707107 0 0.707107
    outer loop
      vertex 5.5 1 3
      vertex 6.5 9 2
      vertex 6.5 10 2
    endloop
  endfacet
  facet normal 0.707107 0 0.707107
    outer loop
      vertex 6.5 9 2
      vertex 5.5 1 3
      vertex 5.5 0 3
    endloop
  endfacet
  facet normal -0.707107 0 0.707107
    outer loop
      vertex -1.5 9 2
      vertex -0.5 1 3
      vertex -1.5 10 2
    endloop
  endfacet
  facet normal -0.707107 0 0.707107
    outer loop
      vertex -0.5 1 3
      vertex -1.5 9 2
      vertex -0.5 0 3
    endloop
  endfacet
  facet normal 0 1 -0
    outer loop
      vertex 6.5 10 0
      vertex 4 10 2
      vertex 6.5 10 2
    endloop
  endfacet
  facet normal 0 1 0
    outer loop
      vertex 4 10 2
      vertex 6.5 10 0
      vertex 4 10 0
    endloop
  endfacet
  facet normal 0 1 -0
    outer loop
      vertex 1 10 0
      vertex -1.5 10 2
      vertex 1 10 2
    endloop
  endfacet
  facet normal 0 1 0
    outer loop
      vertex -1.5 10 2
      vertex 1 10 0
      vertex -1.5 10 0
    endloop
  endfacet
  facet normal -0 0.110432 0.993884
    outer loop
      vertex -1.5 10 2
      vertex 1 6 2.44444
      vertex 1 10 2
    endloop
  endfacet
  facet normal 1.28087e-08 0.110432 0.993884
    outer loop
      vertex -0.5 1 3
      vertex 1 6 2.44444
      vertex -1.5 10 2
    endloop
  endfacet
  facet normal 0 0.110432 0.993884
    outer loop
      vertex 1 3 2.77778
      vertex -0.5 1 3
      vertex 1 1 3
    endloop
  endfacet
  facet normal 1.05316e-07 0.110432 0.993884
    outer loop
      vertex 1 6 2.44444
      vertex -0.5 1 3
      vertex 1 3 2.77778
    endloop
  endfacet
  facet normal -0 0.110432 0.993884
    outer loop
      vertex 1 6 2.44444
      vertex 4 3 2.77778
      vertex 4 6 2.44444
    endloop
  endfacet
  facet normal 0 0.110432 0.993884
    outer loop
      vertex 4 3 2.77778
      vertex 1 6 2.44444
      vertex 1 3 2.77778
    endloop
  endfacet
  facet normal 0 0.110432 0.993884
    outer loop
      vertex 4 6 2.44444
      vertex 6.5 10 2
      vertex 4 10 2
    endloop
  endfacet
  facet normal -1.28087e-08 0.110432 0.993884
    outer loop
      vertex 6.5 10 2
      vertex 4 6 2.44444
      vertex 5.5 1 3
    endloop
  endfacet
  facet normal -1.05316e-07 0.110432 0.993884
    outer loop
      vertex 4 3 2.77778
      vertex 5.5 1 3
      vertex 4 6 2.44444
    endloop
  endfacet
  facet normal 0 0.110432 0.993884
    outer loop
      vertex 5.5 1 3
      vertex 4 3 2.77778
      vertex 4 1 3
    endloop
  endfacet
  facet normal 0 -1 0
    outer loop
      vertex -0.5 0 0
      vertex 1 0 3
      vertex -0.5 0 3
    endloop
  endfacet
  facet normal 0 -1 -0
    outer loop
      vertex 1 0 3
      vertex -0.5 0 0
      vertex 4 0 3
    endloop
  endfacet
  facet normal 0 -1 0
    outer loop
      vertex 5.5 0 0
      vertex 4 0 3
      vertex -0.5 0 0
    endloop
  endfacet
  facet normal 0 -1 0
    outer loop
      vertex 4 0 3
      vertex 5.5 0 0
      vertex 5.5 0 3
    endloop
  endfacet
  facet normal 0 -1 0
    outer loop
      vertex 1 0 3
      vertex 4 0 12.605
      vertex 1 0 12.605
    endloop
  endfacet
  facet normal 0 -1 -0
    outer loop
      vertex 4 0 12.605
      vertex 1 0 3
      vertex 4 0 3
    endloop
  endfacet
  facet normal -0.993884 -0.110432 0
    outer loop
      vertex -0.5 0 0
      vertex -1.5 9 2
      vertex -1.5 9 0
    endloop
  endfacet
  facet normal -0.993884 -0.110432 0
    outer loop
      vertex -1.5 9 2
      vertex -0.5 0 0
      vertex -0.5 0 3
    endloop
  endfacet
  facet normal 1 -0 0
    outer loop
      vertex 6.5 9 2
      vertex 6.5 10 0
      vertex 6.5 10 2
    endloop
  endfacet
  facet normal 1 0 0
    outer loop
      vertex 6.5 10 0
      vertex 6.5 9 2
      vertex 6.5 9 0
    endloop
  endfacet
  facet normal 0.993884 -0.110432 0
    outer loop
      vertex 5.5 0 0
      vertex 6.5 9 2
      vertex 5.5 0 3
    endloop
  endfacet
  facet normal 0.993884 -0.110432 0
    outer loop
      vertex 6.5 9 2
      vertex 5.5 0 0
      vertex 6.5 9 0
    endloop
  endfacet
  facet normal -1 0 0
    outer loop
      vertex -1.5 9 0
      vertex -1.5 10 2
      vertex -1.5 10 0
    endloop
  endfacet
  facet normal -1 -0 0
    outer loop
      vertex -1.5 10 2
      vertex -1.5 9 0
      vertex -1.5 9 2
    endloop
  endfacet
  facet normal 0 0 -1
    outer loop
      vertex 5.5 0 0
      vertex 1 6 0
      vertex 4 6 0
    endloop
  endfacet
  facet normal 0 0 -1
    outer loop
      vertex -0.5 0 0
      vertex 1 6 0
      vertex 5.5 0 0
    endloop
  endfacet
  facet normal 0 0 -1
    outer loop
      vertex -1.5 9 0
      vertex 1 6 0
      vertex -0.5 0 0
    endloop
  endfacet
  facet normal 0 0 -1
    outer loop
      vertex 1 6 0
      vertex -1.5 9 0
      vertex 1 10 0
    endloop
  endfacet
  facet normal -0 0 -1
    outer loop
      vertex 1 10 0
      vertex -1.5 9 0
      vertex -1.5 10 0
    endloop
  endfacet
  facet normal 0 0 -1
    outer loop
      vertex 4 6 0
      vertex 6.5 9 0
      vertex 5.5 0 0
    endloop
  endfacet
  facet normal 0 0 -1
    outer loop
      vertex 4 10 0
      vertex 6.5 9 0
      vertex 4 6 0
    endloop
  endfacet
  facet normal 0 0 -1
    outer loop
      vertex 6.5 9 0
      vertex 4 10 0
      vertex 6.5 10 0
    endloop
  endfacet
  facet normal 1 0 0
    outer loop
      vertex 1 6 0
      vertex 1 10 2
      vertex 1 6 2.44444
    endloop
  endfacet
  facet normal 1 0 0
    outer loop
      vertex 1 10 2
      vertex 1 6 0
      vertex 1 10 0
    endloop
  endfacet
  facet normal -1 0 0
    outer loop
      vertex 4 6 0
      vertex 4 10 2
      vertex 4 10 0
    endloop
  endfacet
  facet normal -1 -0 0
    outer loop
      vertex 4 10 2
      vertex 4 6 0
      vertex 4 6 2.44444
    endloop
  endfacet
  facet normal 0 1 -0
    outer loop
      vertex 4 6 0
      vertex 1 6 2.44444
      vertex 4 6 2.44444
    endloop
  endfacet
  facet normal 0 1 0
    outer loop
      vertex 1 6 2.44444
      vertex 4 6 0
      vertex 1 6 0
    endloop
  endfacet
  facet normal -1 0 0
    outer loop
      vertex 1 1 3
      vertex 1 3 13
      vertex 1 3 2.77778
    endloop
  endfacet
  facet normal -1 0 0
    outer loop
      vertex 1 0 12.605
      vertex 1 3 13
      vertex 1 1 3
    endloop
  endfacet
  facet normal -1 0 0
    outer loop
      vertex 1 0 12.605
      vertex 1 1 3
      vertex 1 0 3
    endloop
  endfacet
  facet normal -1 -0 0
    outer loop
      vertex 1 3 13
      vertex 1 0 12.605
      vertex 1 0.411809 22.6593
    endloop
  endfacet
  facet normal -1 0 0
    outer loop
      vertex 1 0.411809 22.6593
      vertex 1 0 12.605
      vertex 1 -2.48597 21.8828
    endloop
  endfacet
  facet normal 1 0 0
    outer loop
      vertex 4 0.411809 22.6593
      vertex 4 -2.48597 21.8828
      vertex 4 0 12.605
    endloop
  endfacet
  facet normal 1 0 0
    outer loop
      vertex 4 3 13
      vertex 4 1 3
      vertex 4 3 2.77778
    endloop
  endfacet
  facet normal 1 0 0
    outer loop
      vertex 4 0 12.605
      vertex 4 3 13
      vertex 4 0.411809 22.6593
    endloop
  endfacet
  facet normal 1 0 0
    outer loop
      vertex 4 3 13
      vertex 4 0 12.605
      vertex 4 1 3
    endloop
  endfacet
  facet normal 1 0 0
    outer loop
      vertex 4 1 3
      vertex 4 0 12.605
      vertex 4 0 3
    endloop
  endfacet
  facet normal 0 1 -0
    outer loop
      vertex 4 3 2.77778
      vertex 1 3 13
      vertex 4 3 13
    endloop
  endfacet
  facet normal 0 1 0
    outer loop
      vertex 1 3 13
      vertex 4 3 2.77778
      vertex 1 3 2.77778
    endloop
  endfacet
  facet normal 0 -0.965926 -0.258819
    outer loop
      vertex 1 0 12.605
      vertex 4 -2.48597 21.8828
      vertex 1 -2.48597 21.8828
    endloop
  endfacet
  facet normal 0 -0.965926 -0.258819
    outer loop
      vertex 4 -2.48597 21.8828
      vertex 1 0 12.605
      vertex 4 0 12.605
    endloop
  endfacet
  facet normal 0 -0.258819 0.965926
    outer loop
      vertex 1 0.411809 22.6593
      vertex 4 -2.48597 21.8828
      vertex 4 0.411809 22.6593
    endloop
  endfacet
  facet normal 0 -0.258819 0.965926
    outer loop
      vertex 4 -2.48597 21.8828
      vertex 1 0.411809 22.6593
      vertex 1 -2.48597 21.8828
    endloop
  endfacet
  facet normal 0 0.965926 0.258819
    outer loop
      vertex 4 3 13
      vertex 1 0.411809 22.6593
      vertex 4 0.411809 22.6593
    endloop
  endfacet
  facet normal 0 0.965926 0.258819
    outer loop
      vertex 1 0.411809 22.6593
      vertex 4 3 13
      vertex 1 3 13
    endloop
  endfacet
endsolid OpenSCAD_Model
